<?xml version="1.0" standalone="no"?>
<!DOCTYPE svg PUBLIC "-//W3C//DTD SVG 20010904//EN"
 "http://www.w3.org/TR/2001/REC-SVG-20010904/DTD/svg10.dtd">
<svg version="1.0" xmlns="http://www.w3.org/2000/svg"
 width="900.000000pt" height="462.000000pt" viewBox="0 0 900.000000 462.000000"
 preserveAspectRatio="xMidYMid meet" class="svgs">

<metadata>
Created by potrace 1.10, written by Peter Selinger 2001-2011
</metadata>
<g transform="translate(0.000000,462.000000) scale(0.100000,-0.100000)"
fill="rgba(124, 117, 117, 0.3)" stroke="none">
<path d="M6465 4611 c3 -6 -13 -28 -35 -50 -22 -22 -40 -44 -40 -50 0 -6 -18
-15 -40 -21 -49 -13 -57 -26 -34 -51 16 -17 16 -22 4 -29 -9 -6 -19 -5 -24 0
-17 17 -50 11 -63 -10 -7 -10 -30 -24 -51 -29 -73 -20 -154 -140 -105 -158 32
-12 33 -27 3 -55 -36 -33 -41 -78 -9 -78 51 0 80 -47 42 -69 -13 -7 -25 -2
-50 20 -21 18 -39 26 -50 22 -12 -5 -15 -2 -10 10 5 14 1 15 -26 10 -17 -4
-39 -15 -48 -26 -18 -23 -36 -16 -50 20 -9 24 -11 25 -28 9 -9 -9 -24 -16 -33
-16 -8 0 -23 -9 -33 -20 -10 -11 -26 -20 -36 -20 -13 0 -16 -6 -11 -22 4 -16
2 -20 -10 -15 -10 3 -19 -3 -27 -19 -6 -14 -19 -24 -30 -24 -11 0 -25 -9 -31
-20 -6 -11 -19 -20 -30 -20 -11 0 -24 -9 -30 -20 -8 -14 -8 -20 0 -20 6 0 24
-10 40 -21 16 -12 36 -19 44 -16 9 4 16 2 16 -2 0 -15 -59 -31 -90 -25 -16 4
-30 14 -33 25 -6 23 -37 25 -77 4 -44 -23 -53 -46 -28 -72 11 -12 17 -27 13
-33 -9 -15 -56 -4 -72 17 -11 14 -16 14 -45 2 -46 -19 -102 -74 -94 -94 3 -9
1 -15 -7 -14 -6 1 -21 1 -32 0 -19 -2 -18 -3 3 -11 12 -5 22 -14 22 -19 0 -5
11 -12 25 -15 40 -10 29 -26 -17 -26 -59 0 -93 -20 -92 -51 2 -29 -12 -40 -40
-29 -12 4 -32 6 -46 5 -14 -1 -31 -3 -37 -4 -7 0 -13 -12 -13 -25 0 -14 -8
-32 -17 -42 -10 -10 -17 -31 -16 -53 1 -20 -1 -28 -4 -18 -2 9 -10 17 -17 17
-17 0 -46 -33 -46 -52 0 -9 -7 -21 -15 -28 -16 -13 -21 -50 -6 -50 5 0 11 10
14 22 5 18 8 19 22 8 14 -11 14 -15 1 -35 -18 -27 -13 -34 19 -27 31 5 41 20
26 35 -6 6 -11 21 -11 34 0 13 -4 23 -10 23 -5 0 -10 4 -10 8 0 5 15 8 33 8
17 0 49 3 70 7 33 7 37 6 37 -11 0 -11 -6 -22 -14 -25 -23 -9 -26 -56 -5 -68
19 -10 26 -39 10 -39 -5 0 -11 -10 -13 -22 -5 -36 -44 -35 -90 2 -22 18 -51
33 -65 33 -13 0 -27 6 -30 13 -4 10 -10 7 -25 -11 l-19 -25 27 -50 c15 -27 33
-50 40 -50 14 0 23 -21 25 -58 1 -23 3 -21 8 8 5 31 10 35 40 38 44 4 78 27
85 58 5 20 11 23 32 20 35 -7 54 2 54 25 0 16 7 19 41 19 23 0 38 4 34 10 -3
5 -11 7 -18 4 -7 -2 -22 4 -32 16 -10 11 -24 20 -31 20 -7 0 -19 14 -28 30 -8
17 -11 30 -7 30 4 0 13 11 19 26 7 14 28 32 47 40 27 11 37 22 42 45 5 25 10
30 32 27 34 -4 38 -31 6 -46 -14 -6 -25 -18 -25 -25 0 -8 -11 -19 -25 -25 -14
-6 -25 -16 -25 -21 0 -5 -10 -11 -22 -15 -31 -8 -12 -24 32 -28 27 -2 36 -8
38 -25 5 -31 30 -29 38 3 6 22 10 25 33 19 14 -4 28 -11 29 -16 7 -18 49 -8
82 21 23 19 46 29 68 30 28 0 32 -3 32 -25 0 -18 5 -25 20 -25 11 0 20 4 20 9
0 10 85 71 99 71 5 0 16 -12 26 -26 15 -24 18 -25 34 -10 14 12 29 15 58 10
44 -7 63 7 43 31 -12 14 -5 55 9 55 13 0 51 36 51 49 0 6 -13 11 -30 11 -20 0
-30 5 -30 15 0 10 11 15 35 15 38 0 44 10 20 34 -8 8 -15 22 -15 30 0 9 -8 16
-20 16 -16 0 -20 7 -20 35 0 31 -3 35 -25 35 -20 0 -25 5 -25 26 0 22 -3 24
-22 18 -29 -8 -28 -6 -21 -32 3 -12 10 -22 15 -22 5 0 6 -4 3 -10 -3 -5 -14
-10 -23 -10 -12 0 -23 -18 -35 -56 -10 -31 -16 -58 -13 -61 9 -10 38 20 53 55
14 33 22 36 59 26 21 -6 21 -6 4 -42 -10 -20 -16 -42 -13 -49 3 -8 -12 -14
-46 -19 -47 -6 -70 -18 -58 -30 2 -3 31 -6 63 -8 33 -2 63 -4 68 -5 5 -1 1
-10 -10 -22 -17 -19 -19 -19 -31 -3 -13 18 -12 18 -75 -14 -3 -2 -9 7 -13 18
-7 22 -7 22 -36 -6 -16 -15 -29 -33 -29 -38 0 -6 -11 -19 -25 -29 -23 -16 -24
-16 -37 2 -10 13 -18 17 -28 11 -8 -5 -22 -4 -33 2 -13 7 -26 7 -41 0 -11 -6
-33 -13 -47 -16 -15 -3 -29 -14 -32 -26 -3 -11 -10 -20 -15 -20 -14 0 -19 39
-10 74 5 21 3 35 -7 46 -8 9 -15 24 -15 33 0 9 -7 17 -15 17 -9 0 -18 8 -22
18 -3 9 -17 29 -31 45 -24 25 -24 27 -6 28 10 1 27 1 36 0 27 -3 56 17 60 41
2 16 11 24 28 26 14 2 30 10 37 18 9 12 16 13 32 5 29 -16 51 -13 58 7 6 17
22 32 34 32 4 0 9 -10 13 -22 4 -15 0 -27 -12 -36 -15 -12 -15 -14 -1 -25 8
-7 18 -20 22 -30 6 -17 9 -16 39 5 93 65 98 77 43 91 -15 3 -13 5 8 6 16 0 37
6 48 11 24 13 25 56 2 69 -10 5 -14 13 -10 17 4 5 17 3 27 -4 31 -19 58 -14
76 13 17 25 17 25 31 5 8 -11 25 -20 39 -20 18 0 24 -5 24 -23 0 -12 -9 -28
-20 -35 -20 -12 -28 -42 -12 -42 5 0 17 7 28 15 10 8 29 15 42 15 17 0 22 6
22 28 0 16 -9 37 -20 47 -11 10 -20 23 -20 30 0 6 -10 11 -21 11 -12 -1 -24 5
-27 13 -3 11 2 12 23 7 56 -14 81 16 55 65 -10 17 -7 19 23 19 26 0 36 6 45
25 6 14 16 25 22 25 5 0 10 14 10 30 0 29 -2 30 -45 30 -25 0 -45 5 -45 10 0
18 86 11 111 -9 24 -19 82 -19 104 0 5 5 18 9 30 8 19 0 19 -1 -2 -9 -17 -7
-23 -18 -23 -40 0 -28 3 -30 34 -30 40 0 52 12 31 30 -8 7 -12 16 -9 21 7 13
114 11 114 -1 0 -6 12 -15 28 -21 15 -7 22 -13 15 -16 -7 -3 -13 -10 -13 -18
0 -7 -7 -18 -15 -25 -8 -7 -15 -20 -15 -30 0 -20 -19 -30 -60 -30 -36 0 -48
-17 -24 -34 12 -9 14 -15 6 -20 -15 -9 -16 -46 -1 -46 20 0 49 21 49 35 0 23
16 26 51 8 32 -16 33 -16 47 5 8 12 22 22 31 22 9 0 22 5 27 10 7 7 16 4 29
-10 17 -19 17 -20 -9 -30 -14 -5 -30 -20 -35 -33 -11 -27 -29 -44 -56 -49 -11
-2 -21 -11 -23 -20 -2 -13 6 -17 35 -20 31 -2 39 -7 41 -25 4 -24 0 -26 -58
-27 -43 -1 -55 -32 -17 -41 18 -5 23 -12 20 -28 -2 -12 1 -28 6 -36 12 -19 41
-6 41 17 0 11 7 25 16 33 13 11 21 10 50 -6 43 -23 44 -49 3 -64 -24 -8 -30
-15 -27 -33 5 -35 35 -34 66 3 15 18 35 40 45 48 9 9 17 21 17 28 0 7 7 13 15
13 8 0 15 -7 15 -15 0 -29 19 -14 22 18 3 29 6 32 37 32 19 0 36 6 38 13 7 18
42 15 80 -9 26 -16 31 -24 21 -30 -21 -13 -45 -10 -52 6 -3 8 -13 15 -21 15
-13 0 -15 -6 -10 -30 6 -25 4 -30 -13 -30 -11 0 -25 -7 -32 -15 -15 -18 -43
-19 -70 -3 -23 15 -28 11 -32 -26 -2 -24 3 -33 25 -45 26 -15 29 -15 42 3 14
18 15 18 24 -8 11 -27 21 -32 37 -17 13 14 74 -44 75 -71 0 -29 52 -70 81 -66
33 4 38 53 6 62 -32 9 -71 43 -63 56 9 14 33 12 42 -4 13 -22 49 -28 63 -11 9
11 10 18 1 29 -6 7 -9 20 -5 29 3 8 1 18 -5 22 -19 11 -13 37 8 30 11 -3 21 0
24 9 7 18 -1 26 -25 26 -10 0 -18 5 -18 10 0 6 4 10 8 10 5 0 17 6 27 14 16
12 17 16 6 30 -11 13 -9 16 13 22 14 3 26 12 26 20 0 19 35 18 55 -3 14 -13
21 -14 36 -5 16 10 21 10 25 -2 7 -19 -3 -36 -21 -36 -11 0 -25 -20 -25 -36 0
-2 18 4 41 13 38 15 43 15 75 -1 42 -20 82 -12 90 18 3 11 4 39 2 61 -2 22 2
41 7 43 6 1 11 -25 13 -59 2 -48 -1 -64 -14 -73 -23 -17 -14 -51 13 -51 29 -1
38 -11 24 -29 -15 -17 -4 -96 14 -96 19 0 25 11 15 30 -12 23 16 36 37 18 9
-7 33 -14 54 -15 36 -2 39 0 39 22 0 14 9 36 21 49 17 20 28 23 55 19 27 -5
38 -1 54 18 25 31 25 36 -5 43 -13 3 -34 16 -45 28 -11 12 -23 18 -27 15 -3
-4 1 -13 11 -20 10 -7 16 -22 14 -33 -5 -26 -42 -25 -46 1 -3 11 -10 24 -18
28 -16 9 -19 37 -3 37 5 0 16 15 24 34 17 40 34 49 56 30 13 -12 20 -9 49 19
l33 32 -6 -33 c-5 -24 -2 -37 12 -51 21 -21 18 -31 -11 -31 -10 0 -18 6 -18
14 0 20 -40 32 -51 15 -11 -18 -7 -21 85 -69 48 -24 87 -38 98 -34 26 8 23
-20 -4 -38 -12 -8 -18 -19 -14 -26 12 -20 35 -13 42 12 3 14 12 27 20 30 8 3
14 10 14 17 0 6 -7 9 -15 6 -24 -10 -28 13 -9 49 18 32 18 34 1 47 -15 10 -17
21 -11 55 6 40 24 60 24 27 0 -23 66 -20 87 4 12 15 24 18 51 14 26 -5 38 -2
48 11 12 17 14 16 33 -3 12 -12 21 -30 21 -41 0 -11 7 -20 15 -20 8 0 15 3 15
8 0 4 17 16 38 27 20 11 48 28 62 38 25 17 27 17 68 -5 23 -13 42 -26 42 -29
0 -3 -18 -13 -40 -22 -34 -13 -41 -13 -51 -1 -10 13 -18 10 -49 -21 -20 -19
-43 -35 -51 -35 -8 0 -20 -5 -26 -11 -14 -14 -41 13 -49 49 -10 45 -13 52 -24
52 -6 0 -8 -10 -4 -25 5 -20 1 -26 -21 -35 -21 -8 -33 -7 -49 4 -19 12 -26 12
-49 0 -30 -16 -32 -22 -13 -46 16 -22 32 -23 40 -2 4 11 17 14 43 12 34 -3 38
-6 45 -38 3 -19 9 -44 13 -55 4 -14 -3 -30 -25 -53 -33 -37 -34 -40 -20 -76
13 -34 38 -33 51 2 6 15 20 37 31 49 14 15 19 29 14 47 -8 31 3 59 20 52 9 -3
14 1 14 12 0 11 14 24 35 34 33 15 35 15 35 -3 0 -10 -4 -20 -9 -23 -13 -9
-20 -58 -7 -53 6 2 19 0 29 -5 17 -9 17 -7 7 13 -11 19 -9 25 16 45 15 13 31
24 36 24 14 0 9 30 -7 36 -23 9 -18 26 7 22 18 -2 23 -10 24 -39 3 -33 0 -37
-27 -43 -36 -7 -38 -32 -3 -40 17 -5 39 0 66 14 40 21 68 21 68 0 0 -5 -5 -10
-12 -10 -7 0 -27 -15 -45 -32 -29 -28 -36 -31 -53 -20 -27 17 -34 15 -16 -4
22 -22 20 -40 -9 -78 -14 -18 -25 -43 -25 -56 0 -19 -4 -21 -22 -16 -48 15
-53 13 -50 -21 3 -27 0 -33 -16 -33 -11 0 -25 -6 -31 -13 -8 -11 -5 -16 13
-25 14 -6 27 -23 31 -41 3 -16 12 -32 18 -34 7 -2 -1 -3 -16 -1 -26 3 -27 2
-13 -12 9 -8 16 -19 16 -23 0 -5 14 -11 31 -15 27 -5 31 -9 26 -32 -3 -19 -1
-24 11 -19 17 6 44 -13 36 -26 -6 -10 -70 -39 -85 -39 -18 0 -39 34 -39 65 l0
33 -57 -3 c-59 -2 -74 -14 -53 -40 8 -9 21 -13 35 -9 16 4 30 -1 43 -14 20
-20 20 -20 -9 -26 -28 -5 -39 -29 -19 -41 5 -3 28 -7 49 -8 22 0 37 -5 34 -10
-7 -12 17 -37 38 -37 23 0 34 19 20 33 -9 9 2 16 41 29 69 23 82 23 70 1 -13
-23 6 -63 30 -63 20 0 24 29 8 60 -13 25 13 48 35 30 8 -7 15 -19 15 -27 0
-10 7 -8 29 8 36 26 65 19 86 -21 23 -45 19 -53 -21 -48 -32 4 -37 1 -46 -24
-13 -36 -28 -27 -28 17 0 19 -5 37 -10 40 -13 8 -40 -55 -35 -81 2 -10 4 -23
4 -27 1 -5 5 -5 11 -2 5 3 20 -3 32 -15 l22 -20 -34 2 c-19 1 -43 -2 -53 -7
-14 -6 -20 -2 -24 14 -4 17 -13 21 -44 21 -33 0 -42 -5 -61 -35 -20 -30 -28
-35 -58 -32 -26 1 -35 -2 -38 -15 -3 -15 4 -18 37 -18 31 0 41 -4 46 -20 5
-16 10 -18 31 -8 26 12 29 19 14 34 -7 7 -4 16 9 28 12 11 21 14 26 7 3 -6 20
-11 37 -11 27 0 30 -2 24 -25 -8 -30 6 -33 32 -7 42 42 58 36 77 -28 13 -43
41 -51 67 -19 15 21 19 22 28 9 17 -25 7 -45 -25 -48 -16 -2 -33 -9 -37 -15
-5 -8 -8 -6 -8 6 0 9 -7 17 -15 17 -19 0 -45 -62 -38 -90 6 -24 -24 -63 -44
-56 -7 3 -13 1 -13 -4 0 -18 20 -20 57 -5 29 12 41 24 49 48 7 27 14 32 39 32
24 0 29 -4 27 -20 -2 -11 -14 -28 -28 -38 -29 -23 -31 -52 -4 -67 11 -6 20
-18 20 -28 0 -9 17 -35 38 -57 39 -42 46 -87 17 -99 -23 -8 -47 22 -35 44 11
20 -3 39 -15 20 -3 -5 -14 -10 -23 -10 -16 1 -16 2 1 14 19 15 22 32 8 41 -15
8 -62 -47 -56 -66 3 -9 -1 -22 -10 -29 -8 -7 -15 -16 -15 -21 0 -15 47 -10 60
6 22 27 32 1 13 -34 -16 -27 -16 -33 -3 -41 8 -5 11 -12 7 -16 -4 -4 -15 -1
-24 7 -35 29 -75 43 -115 42 -22 -1 -43 -4 -46 -7 -3 -3 -8 -27 -13 -53 -5
-35 -3 -52 7 -64 19 -21 18 -48 -2 -56 -11 -4 -23 2 -34 17 l-18 23 -7 -22
c-4 -14 -18 -24 -36 -28 -39 -7 -31 -29 9 -26 41 4 52 -16 13 -23 -17 -4 -31
-11 -31 -16 0 -6 -7 -7 -16 -4 -13 5 -14 3 -6 -7 11 -13 8 -21 -42 -92 -12
-17 -21 -47 -22 -83 -3 -50 -7 -60 -38 -89 -36 -34 -81 -48 -56 -18 21 25 -1
38 -49 30 -32 -5 -41 -11 -41 -26 0 -11 -4 -18 -8 -15 -5 3 -7 19 -4 37 3 23
12 34 36 44 26 11 28 15 14 20 -10 4 -18 17 -18 30 0 18 4 21 25 17 23 -4 25
-2 25 36 0 23 -4 44 -10 47 -5 3 -10 22 -10 41 0 37 -6 41 -35 20 -18 -13 -19
-16 -4 -48 12 -25 13 -40 5 -61 -13 -36 -40 -31 -44 8 -5 42 -22 57 -22 19 0
-17 -8 -37 -20 -47 -11 -9 -20 -24 -20 -32 0 -31 -18 -13 -22 22 -4 30 0 42
20 60 16 15 22 28 17 42 -4 13 1 26 15 39 23 22 24 52 1 60 -9 3 -11 0 -6 -8
4 -7 2 -16 -6 -21 -21 -13 -27 -11 -34 11 -3 11 -11 20 -16 20 -17 0 -23 -32
-8 -44 8 -6 15 -28 16 -48 2 -32 -1 -38 -17 -38 -24 0 -24 -3 -5 -66 8 -27 15
-55 15 -61 0 -19 -66 -17 -74 2 -9 25 -34 17 -38 -12 -2 -17 -8 -27 -17 -25
-20 4 -41 -18 -41 -43 0 -36 -11 -55 -31 -55 -29 0 -24 85 7 127 13 17 21 38
18 46 -7 19 35 83 64 96 12 6 22 14 22 19 0 10 -39 47 -43 41 -2 -2 -17 -22
-34 -44 -28 -37 -50 -95 -45 -121 1 -6 -12 -11 -29 -12 -35 -1 -44 -7 -53 -38
-4 -14 -1 -28 9 -37 14 -15 14 -17 -4 -27 -11 -6 -38 -8 -59 -4 -48 7 -78 -7
-86 -41 -7 -27 -33 -33 -66 -15 -26 14 -71 -4 -67 -27 1 -10 -2 -18 -8 -18 -5
0 -10 8 -9 17 0 11 -7 18 -16 18 -13 0 -19 -12 -24 -41 -6 -36 -3 -43 24 -69
37 -35 37 -44 0 -87 -16 -18 -30 -38 -30 -44 0 -12 59 27 77 51 10 13 12 13
18 -3 4 -9 4 -32 1 -51 -6 -33 -6 -34 40 -47 30 -9 50 -22 57 -36 6 -13 16
-23 22 -23 13 0 65 -72 65 -90 0 -6 15 -8 40 -4 31 5 41 3 46 -10 3 -9 11 -16
18 -16 6 0 17 -4 25 -9 13 -8 13 -15 1 -51 -12 -35 -12 -43 0 -50 8 -5 17 -7
21 -4 4 2 17 -9 29 -25 12 -18 26 -28 35 -25 8 4 18 -1 21 -10 8 -22 21 -20
27 4 5 20 41 28 51 12 7 -11 -46 -68 -71 -76 -11 -4 -24 -13 -27 -21 -3 -9
-18 -15 -35 -15 -20 0 -36 -8 -50 -26 -15 -19 -27 -25 -48 -22 -23 2 -28 8
-29 33 -2 45 -3 46 -24 35 -15 -8 -21 -6 -29 9 -6 10 -22 22 -36 25 -30 8 -33
36 -5 43 31 8 17 28 -16 26 -52 -5 -61 5 -29 32 17 13 35 25 40 25 6 0 20 11
32 23 25 27 17 48 -18 52 -13 1 -28 3 -33 4 -4 0 -5 17 -2 37 8 39 -13 84 -39
84 -18 0 -20 -31 -4 -47 13 -13 4 -33 -15 -33 -7 0 -27 14 -44 30 -18 17 -39
30 -48 30 -12 0 -15 6 -10 25 7 29 -15 45 -38 26 -17 -14 -10 -47 11 -55 21
-9 6 -26 -24 -26 -24 0 -25 2 -20 40 4 33 2 42 -14 50 -10 6 -19 19 -19 30 0
11 -6 25 -13 32 -8 6 -11 22 -9 35 4 21 1 23 -33 23 -28 0 -42 -6 -57 -25 -11
-14 -23 -23 -28 -20 -4 3 -15 2 -24 -1 -18 -7 -23 -69 -6 -79 19 -12 10 -26
-12 -20 -17 6 -20 4 -15 -10 4 -9 7 -19 7 -21 0 -13 38 0 76 25 39 27 65 27
49 1 -4 -6 -1 -18 6 -26 10 -13 14 -13 30 2 17 15 19 14 34 -22 25 -58 45
-126 39 -135 -2 -4 5 -13 16 -19 17 -9 22 -7 30 14 5 14 17 25 27 24 10 0 25
2 34 6 12 5 18 0 22 -23 4 -18 13 -31 22 -31 8 0 15 -4 15 -10 0 -5 -9 -10
-20 -10 -11 0 -20 5 -20 10 0 13 -26 13 -51 -1 -17 -9 -18 -13 -7 -27 11 -13
11 -15 -4 -9 -14 5 -18 1 -18 -18 0 -18 7 -26 25 -31 19 -5 23 -9 15 -19 -6
-7 -8 -19 -5 -28 7 -17 46 -11 58 10 4 7 14 13 22 13 7 0 16 6 18 13 3 6 6 2
6 -10 1 -13 -7 -24 -18 -28 -11 -3 -22 -13 -25 -21 -4 -12 -14 -14 -36 -9 -22
5 -32 3 -36 -9 -5 -14 -9 -14 -37 1 l-31 16 22 17 c12 10 22 21 22 25 0 10
-123 1 -127 -10 -2 -5 9 -11 23 -12 33 -1 47 -15 38 -36 -8 -21 -34 -22 -60
-2 -10 8 -39 15 -63 15 -34 0 -42 3 -38 15 4 8 1 17 -4 21 -12 7 -69 -50 -69
-70 0 -6 -5 -17 -12 -24 -9 -10 -8 -16 6 -30 18 -16 18 -16 13 11 -4 23 -1 27
12 21 9 -3 35 -9 59 -11 33 -4 42 -10 42 -25 0 -25 -36 -37 -91 -31 -34 4 -50
1 -61 -11 -10 -9 -31 -15 -50 -15 -31 2 -31 2 -5 6 19 3 27 10 25 20 -5 24
-32 37 -61 29 -32 -8 -38 -49 -9 -65 16 -10 15 -12 -8 -30 -16 -13 -29 -16
-34 -10 -13 12 -26 12 -26 -1 0 -5 7 -10 15 -10 9 0 15 -9 15 -25 0 -43 37
-30 64 23 21 41 38 48 77 32 24 -10 30 -18 26 -36 -4 -20 -1 -22 23 -17 22 4
29 1 34 -15 9 -27 -1 -47 -29 -62 -14 -7 -27 -22 -31 -32 -9 -30 -24 -10 -24
33 0 28 -4 39 -15 39 -10 0 -15 -11 -15 -35 0 -26 -8 -43 -35 -69 -41 -42 -44
-56 -10 -56 14 0 29 -8 35 -20 6 -11 18 -20 26 -20 10 0 14 -6 11 -14 -8 -21
20 -43 35 -28 20 20 31 13 24 -13 -10 -38 9 -67 39 -59 23 6 25 3 25 -28 0
-41 -8 -52 -27 -36 -10 8 -17 8 -25 0 -7 -7 -22 -12 -35 -12 -18 0 -23 -6 -23
-26 0 -20 3 -24 13 -17 6 6 22 12 33 15 17 4 20 2 17 -13 -7 -24 14 -25 39 -2
22 20 54 7 52 -21 -1 -9 11 -23 27 -32 38 -19 109 -3 109 25 0 20 43 54 54 44
3 -4 6 -15 6 -25 0 -22 13 -23 31 -2 9 11 22 14 42 10 16 -3 37 -1 48 5 15 7
27 6 50 -8 28 -17 31 -17 60 0 43 24 71 21 129 -13 60 -36 69 -36 103 -10 17
13 34 19 49 15 29 -7 80 7 86 23 2 7 -6 12 -17 12 -12 0 -24 6 -27 13 -6 16
12 67 24 67 4 0 27 -19 51 -41 37 -36 46 -40 64 -31 12 6 41 14 65 17 36 6 41
4 36 -9 -4 -10 -1 -16 7 -16 29 0 101 27 109 40 7 12 16 12 55 2 25 -7 85 -12
134 -12 50 0 102 -5 117 -10 15 -6 35 -8 43 -4 9 4 26 6 39 5 13 -2 29 3 37 9
9 8 29 9 56 5 64 -11 117 21 97 58 -12 23 3 37 40 37 12 0 25 7 28 15 9 23 40
36 70 29 22 -6 25 -11 21 -33 -5 -25 -2 -28 39 -39 60 -16 64 -16 64 13 0 16
-6 25 -15 25 -8 0 -15 5 -15 10 0 6 7 10 15 10 13 0 15 28 15 190 0 156 -3
190 -14 190 -18 0 -27 -26 -20 -56 7 -29 -14 -41 -45 -25 -32 18 -38 76 -11
113 12 16 19 35 17 42 -8 20 9 40 28 33 9 -4 15 -15 14 -24 -3 -33 1 -43 16
-43 13 0 15 172 15 1485 0 1095 -3 1484 -11 1483 -6 -2 -14 3 -16 10 -3 6 2
12 11 12 14 0 16 34 16 310 0 309 0 310 -21 310 -15 0 -19 4 -15 16 3 9 6 18
6 20 0 2 7 4 15 4 10 0 15 10 15 34 0 28 -4 34 -24 38 -21 4 -26 0 -36 -37 -6
-23 -10 -50 -8 -61 2 -16 -3 -19 -32 -19 l-35 0 -8 70 c-4 39 -6 80 -4 93 6
33 -16 26 -34 -11 -9 -19 -25 -33 -37 -35 -28 -4 -28 -18 -2 -32 17 -9 20 -19
17 -51 -4 -35 -1 -42 19 -50 26 -9 33 -44 10 -52 -17 -7 -36 12 -36 36 0 10
-5 15 -10 12 -6 -4 -16 -2 -23 3 -23 18 -92 23 -113 7 -26 -19 -51 -20 -35 -1
9 11 7 22 -10 50 -17 29 -24 34 -38 26 -26 -13 -44 -38 -62 -84 -13 -32 -22
-42 -44 -44 -25 -3 -27 -2 -20 27 6 27 4 31 -13 31 -11 0 -27 3 -36 6 -10 4
-16 1 -16 -9 0 -8 -11 -22 -23 -30 -18 -12 -23 -22 -19 -45 5 -36 -13 -50 -37
-28 -10 9 -29 16 -43 16 -16 0 -32 9 -42 25 -9 14 -22 23 -28 19 -14 -9 -28
15 -28 49 0 18 -9 36 -22 47 -22 17 -22 20 -9 52 8 18 14 47 15 63 1 28 -1 30
-32 28 -29 -1 -34 3 -39 28 -6 31 -43 43 -43 14 0 -16 -38 -35 -70 -35 -13 0
-22 9 -26 25 -6 23 -10 25 -70 25 -51 0 -64 -3 -64 -15 0 -9 -10 -29 -21 -45
-16 -21 -26 -26 -38 -20 -9 5 -29 11 -44 15 -24 5 -27 8 -17 20 7 9 29 15 51
15 28 0 39 4 39 15 0 12 -13 15 -59 15 -54 0 -60 -2 -63 -22 -2 -19 -9 -23
-38 -23 -27 0 -37 5 -45 23 -10 21 -14 22 -166 22 -148 0 -157 -1 -162 -20 -3
-11 -12 -20 -21 -20 -9 0 -16 8 -16 20 0 17 -7 20 -40 20 -33 0 -40 -3 -40
-19 0 -23 -45 -61 -72 -61 -13 0 -25 13 -36 40 l-17 40 -116 0 -117 0 -6 -26
c-8 -31 -36 -29 -51 4 -8 18 -18 22 -57 22 -46 0 -48 -1 -48 -28 0 -32 -25
-72 -44 -72 -9 0 -16 19 -20 50 -6 48 -8 50 -37 50 -17 0 -28 -4 -24 -9z m195
-45 c0 -8 -5 -18 -11 -22 -14 -8 -33 11 -25 25 10 16 36 13 36 -3z m716 7 c14
-5 6 -10 -31 -19 -49 -13 -92 -4 -80 17 7 10 85 12 111 2z m79 -103 c-3 -6
-17 -10 -31 -10 -19 0 -24 -5 -24 -25 0 -30 -15 -31 -54 -6 l-29 19 37 8 c21
3 49 17 64 31 22 20 27 22 34 8 5 -8 6 -20 3 -25z m385 21 c0 -25 22 -41 47
-35 23 6 63 -36 63 -67 0 -23 -38 -26 -46 -4 -4 9 -19 15 -36 15 -22 0 -33 7
-46 30 -18 31 -37 39 -45 18 -3 -7 -6 -4 -6 6 -1 11 6 28 16 38 21 24 53 24
53 -1z m-1382 -57 c2 -12 -4 -24 -12 -27 -19 -7 -40 18 -32 39 8 22 40 13 44
-12z m189 -8 c-4 -9 -11 -16 -17 -16 -11 0 -14 33 -3 44 11 10 26 -11 20 -28z
m640 18 c7 -20 -12 -33 -38 -27 -19 5 -25 24 -12 36 12 13 44 7 50 -9z m739
-51 c-7 -17 -8 -17 -17 0 -12 21 -2 44 13 29 6 -6 8 -19 4 -29z m-771 -3 c3
-5 -3 -10 -15 -10 -12 0 -18 5 -15 10 3 6 10 10 15 10 5 0 12 -4 15 -10z m633
-102 c-18 -11 -61 -6 -65 9 -3 7 10 15 31 19 27 5 36 11 38 28 0 11 3 6 5 -13
3 -21 -1 -37 -9 -43z m-1711 36 c3 -9 14 -19 25 -23 19 -7 19 -7 -2 -26 -21
-19 -21 -19 -27 3 -3 12 -11 22 -19 22 -16 0 -27 17 -19 30 10 15 35 12 42 -6z
m253 1 c0 -23 -32 -35 -53 -20 -27 20 -20 35 18 35 24 0 35 -5 35 -15z m857
-1 c2 -5 -3 -19 -11 -29 -14 -19 -15 -19 -21 -2 -4 9 -4 24 -1 33 6 16 27 15
33 -2z m-977 -67 c-13 -14 -20 9 -13 44 l7 34 7 -35 c4 -19 4 -39 -1 -43z
m2248 49 c18 -10 21 -15 10 -23 -24 -18 -76 -35 -100 -31 -31 4 -26 22 8 26
16 2 28 11 31 23 6 22 19 23 51 5z m-893 -5 c3 -5 1 -13 -5 -16 -15 -9 -43 3
-35 15 8 13 32 13 40 1z m727 -62 c5 -48 -6 -84 -23 -74 -5 4 -7 30 -4 58 2
29 4 59 5 67 1 31 18 -7 22 -51z m478 31 c0 -5 -7 -10 -15 -10 -8 0 -15 5 -15
10 0 6 7 10 15 10 8 0 15 -4 15 -10z m-2342 -45 c-17 -39 -67 -30 -52 9 4 10
18 16 35 16 27 0 28 -1 17 -25z m1707 -10 c0 -25 -4 -30 -22 -28 -26 3 -30 -9
-8 -27 12 -10 13 -16 4 -26 -9 -11 -8 -18 1 -29 16 -19 40 -19 40 -1 0 8 9 18
20 21 19 6 24 16 21 41 -1 6 5 17 13 23 19 16 36 -13 33 -55 -2 -25 2 -29 28
-32 39 -5 53 -18 26 -27 -26 -8 -27 -20 -1 -47 30 -32 25 -42 -27 -55 -42 -10
-50 -9 -67 7 -19 18 -18 19 15 33 l34 15 -39 17 c-35 15 -40 15 -55 1 -14 -15
-14 -19 1 -44 10 -16 15 -38 11 -50 -5 -20 -6 -20 -29 -5 -13 8 -24 22 -24 29
0 16 -68 94 -81 94 -5 0 -12 -12 -15 -27 -8 -33 -33 -65 -45 -57 -13 8 -11 36
6 68 14 27 14 30 -5 43 -20 14 -27 57 -11 67 12 8 41 -4 41 -16 0 -13 31 -37
47 -38 7 0 0 20 -17 47 -32 50 -40 89 -17 80 8 -3 20 -1 28 4 8 5 32 8 54 7
37 -3 40 -5 40 -33z m475 16 c13 -26 13 -31 -5 -31 -8 0 -15 5 -15 10 0 6 -7
10 -15 10 -16 0 -20 12 -8 23 12 13 32 7 43 -12z m-770 -20 c0 -26 -10 -32
-32 -20 -19 10 -19 12 -2 30 19 21 34 17 34 -10z m613 22 c-18 -7 -16 -43 1
-43 8 0 18 5 21 10 3 6 22 10 41 10 30 0 34 -3 34 -25 0 -31 -15 -33 -24 -2
l-7 22 -9 -21 c-5 -14 -20 -23 -42 -26 -47 -7 -58 0 -58 36 0 38 6 46 34 45
12 0 15 -3 9 -6z m252 -23 c8 -13 -21 -60 -35 -60 -13 0 -32 48 -24 61 7 12
51 11 59 -1z m-2637 -28 c2 -15 -2 -22 -12 -22 -11 0 -16 9 -16 26 0 31 23 28
28 -4z m152 16 c11 6 26 12 34 12 22 0 28 -31 10 -52 -16 -17 -16 -19 1 -32
10 -7 14 -16 9 -19 -10 -5 -70 19 -95 39 -8 6 -27 14 -43 18 -27 7 -27 8 -12
25 15 16 22 17 47 8 22 -9 34 -9 49 1z m1688 -18 c-18 -53 -76 -64 -66 -14 3
15 29 30 75 43 1 1 -3 -13 -9 -29z m-194 -15 c7 -19 35 -19 42 0 10 25 26 5
19 -23 -7 -27 -21 -42 -41 -42 -18 0 -64 45 -64 63 0 21 36 23 44 2z m-1566
-66 c-10 -6 -18 -16 -18 -24 0 -8 -4 -17 -10 -20 -6 -4 -10 8 -10 29 0 25 5
36 18 39 26 6 41 -12 20 -24z m1045 -21 c-6 -12 -31 -10 -38 2 -4 6 -4 18 -1
27 6 14 9 14 25 -3 10 -10 17 -22 14 -26z m117 27 c-18 -22 2 -44 24 -26 25
21 32 -26 9 -57 -28 -37 -43 -39 -43 -4 0 24 -7 32 -40 47 l-39 18 32 18 c17
10 40 18 51 18 15 1 16 -1 6 -14z m1234 4 c18 -9 25 -21 28 -48 3 -33 1 -37
-18 -33 -24 4 -38 -20 -28 -50 5 -18 33 -19 97 -1 9 2 17 0 17 -6 0 -6 -10
-11 -22 -11 -35 0 -51 -15 -43 -39 6 -19 2 -21 -29 -21 -34 0 -35 1 -24 20 10
16 10 22 -3 32 -39 33 -43 47 -19 73 19 20 21 28 12 54 -14 41 -7 48 32 30z
m-982 -34 c-5 -28 -18 -39 -36 -32 -19 8 -21 43 -3 50 24 10 42 2 39 -18z
m298 -12 c9 -9 -26 -22 -60 -23 -19 0 -43 0 -54 -1 -23 0 -30 6 -23 24 4 10
21 12 68 9 35 -2 66 -6 69 -9z m-1640 -2 c0 -5 -7 -11 -15 -15 -9 -3 -15 0
-15 9 0 8 7 15 15 15 8 0 15 -4 15 -9z m867 -17 c3 -8 0 -21 -7 -29 -11 -13
-16 -13 -41 2 -27 16 -36 33 -24 45 10 9 67 -5 72 -18z m-1350 -30 c-9 -9 -28
6 -21 18 4 6 10 6 17 -1 6 -6 8 -13 4 -17z m1518 7 c-3 -11 0 -29 6 -39 11
-17 9 -23 -17 -46 -33 -28 -71 -33 -100 -12 -20 16 -15 21 31 28 13 2 20 11
20 25 1 25 32 63 52 63 10 0 12 -6 8 -19z m-847 -67 c-16 -17 -48 -9 -48 11 0
18 21 24 44 13 16 -9 16 -12 4 -24z m1182 8 c0 -4 -9 -13 -20 -20 -22 -13 -27
-3 -8 16 14 14 28 16 28 4z m236 -30 c6 -12 18 -30 28 -41 14 -15 15 -23 5
-45 -7 -14 -16 -26 -21 -26 -21 0 -48 22 -48 40 0 10 -5 30 -11 44 -23 51 22
78 47 28z m464 4 c0 -9 15 -17 40 -21 35 -6 38 -9 28 -25 -13 -20 -83 -34
-107 -21 -11 7 -10 10 7 15 27 9 28 26 2 33 -29 8 -25 33 5 33 15 0 25 -6 25
-14z m-180 -6 c0 -5 14 -16 30 -25 36 -19 40 -45 7 -45 -15 0 -28 -9 -35 -24
-12 -27 -71 -43 -101 -27 -20 11 -44 65 -34 75 4 3 16 6 28 6 12 0 34 11 49
25 27 25 56 33 56 15z m-1718 -25 c0 -5 -5 -11 -11 -13 -6 -2 -11 4 -11 13 0
9 5 15 11 13 6 -2 11 -8 11 -13z m118 0 c0 -8 -9 -15 -20 -15 -20 0 -26 11
-13 23 12 13 33 7 33 -8z m1240 5 c0 -5 -9 -10 -21 -10 -11 0 -17 5 -14 10 3
6 13 10 21 10 8 0 14 -4 14 -10z m-110 -10 c0 -5 -9 -10 -20 -10 -11 0 -20 5
-20 10 0 6 9 10 20 10 11 0 20 -4 20 -10z m316 -22 c-3 -18 -14 -39 -23 -46
-11 -8 -16 -24 -15 -47 l3 -35 -33 13 c-41 17 -48 60 -10 65 33 5 62 32 62 59
0 13 5 23 11 23 8 0 9 -11 5 -32z m-1521 -18 c-19 -21 -38 -18 -29 5 5 13 34
25 43 18 2 -1 -4 -12 -14 -23z m1121 5 c-3 -9 3 -20 14 -27 25 -16 25 -30 0
-53 -20 -18 -21 -18 -47 1 -14 11 -25 23 -24 27 1 4 4 20 7 37 5 24 12 30 31
30 18 0 24 -4 19 -15z m964 -20 c0 -10 -10 -15 -30 -15 -47 0 -35 27 13 29 9
1 17 -6 17 -14z m-2240 -16 c0 -24 -23 -21 -28 4 -2 10 3 17 12 17 10 0 16 -9
16 -21z m1012 -43 c-3 -5 -11 -1 -18 9 -10 14 -11 22 -2 39 12 20 12 20 18 -9
4 -16 4 -34 2 -39z m1003 18 c-22 -16 -41 -4 -31 21 5 13 10 14 28 4 21 -11
21 -12 3 -25z m-1466 17 c9 -6 10 -10 2 -16 -15 -8 -41 1 -41 15 0 12 20 13
39 1z m911 -56 c0 -8 -9 -15 -20 -15 -16 0 -20 7 -20 37 l0 37 20 -22 c11 -12
20 -28 20 -37z m747 9 c-12 -12 -37 5 -37 26 l0 21 22 -21 c12 -11 19 -23 15
-26z m-1732 17 c3 -5 -1 -15 -8 -23 -7 -7 -16 -22 -20 -32 -12 -30 -20 -11
-13 29 7 33 28 47 41 26z m1479 -8 c9 -22 -17 -48 -37 -37 -10 7 -12 15 -6 32
10 26 34 29 43 5z m-1220 -5 c-4 -7 -7 -29 -5 -50 2 -48 -25 -78 -72 -78 -49
0 -52 11 -10 35 53 29 52 58 -2 66 -35 5 -37 6 -15 11 51 12 105 26 108 27 2
0 0 -4 -4 -11z m226 -35 c0 -30 -35 -31 -43 -3 -7 26 22 58 34 38 5 -7 9 -23
9 -35z m-412 18 c11 -7 10 -10 -3 -15 -20 -7 -38 1 -30 15 7 11 16 11 33 0z
m1516 -7 c9 -25 7 -34 -9 -34 -20 0 -39 37 -22 43 20 9 25 8 31 -9z m-916 -44
c-14 -32 -31 -35 -37 -5 -2 11 7 26 20 36 29 22 35 10 17 -31z m562 30 c0 -11
-4 -20 -10 -20 -5 0 -10 9 -10 20 0 11 5 20 10 20 6 0 10 -9 10 -20z m-1510
-24 c0 -24 -16 -36 -51 -36 -29 0 -26 47 4 53 43 8 47 7 47 -17z m610 -12 c0
-8 7 -26 16 -40 12 -18 14 -31 7 -46 -8 -19 -10 -20 -26 -4 -19 19 -25 122 -7
111 6 -3 10 -13 10 -21z m514 -51 c-20 -15 -34 -8 -34 16 0 28 12 33 32 14 18
-16 18 -18 2 -30z m-874 -4 c0 -10 -4 -19 -10 -19 -5 0 -10 12 -10 26 0 14 4
23 10 19 6 -3 10 -15 10 -26z m114 12 c3 -5 -6 -21 -19 -35 -20 -22 -25 -24
-25 -10 0 10 7 26 17 36 19 21 20 21 27 9z m1773 -7 c3 -9 1 -24 -6 -33 -6 -9
-14 -24 -17 -33 -4 -11 -16 -18 -30 -18 -30 0 -31 23 -4 68 21 35 47 42 57 16z
m-2037 -40 c0 -19 -5 -24 -25 -24 -29 0 -32 13 -7 38 21 23 32 18 32 -14z
m1850 -3 c0 -10 -48 -51 -60 -51 -16 0 -19 30 -4 45 17 16 64 21 64 6z m-1145
-50 c0 -13 -9 -29 -20 -35 -11 -6 -23 -15 -26 -20 -11 -14 -36 0 -42 23 -4 15
3 25 27 40 40 25 61 22 61 -8z m1423 12 c2 -8 -6 -13 -22 -13 -17 0 -26 5 -26
16 0 19 41 16 48 -3z m-1377 -63 c3 -53 -4 -70 -32 -70 -29 0 -47 45 -26 67 8
10 21 32 27 48 14 38 27 20 31 -45z m-601 -75 c0 -18 -5 -25 -19 -25 -26 0
-36 17 -21 35 19 23 40 18 40 -10z m1651 -91 c9 -11 8 -14 -8 -14 -19 0 -43
17 -43 31 0 11 38 -2 51 -17z m372 2 c7 -18 -1 -26 -25 -26 -18 0 -25 20 -11
33 11 12 31 8 36 -7z m-3553 -35 c0 -11 -39 -25 -47 -18 -3 3 -2 10 2 16 8 13
45 15 45 2z m3140 -31 c10 0 8 -66 -3 -76 -15 -16 -6 -34 17 -34 14 0 37 -10
51 -23 l27 -22 -21 -19 c-20 -18 -21 -18 -51 14 l-31 33 -12 -32 -12 -32 -10
43 c-10 39 -14 43 -41 43 -22 0 -30 5 -32 23 -4 29 24 41 42 17 11 -15 13 -15
25 -1 8 9 11 26 7 39 -7 28 2 40 22 32 7 -3 18 -5 22 -5z m-146 -136 c7 -57 3
-64 -32 -55 -35 9 -40 36 -10 52 33 17 33 18 12 34 -19 14 -19 14 2 15 18 0
22 -8 28 -46z m276 -114 c0 -5 -11 -10 -25 -10 -14 0 -25 5 -25 10 0 6 11 10
25 10 14 0 25 -4 25 -10z m307 -176 c9 -24 -14 -66 -35 -62 -19 4 -46 53 -37
68 10 16 65 12 72 -6z m-242 -83 c3 -5 1 -13 -5 -16 -15 -9 -43 3 -35 15 8 13
32 13 40 1z m-13 -246 c0 -5 -5 -11 -11 -13 -6 -2 -11 4 -11 13 0 9 5 15 11
13 6 -2 11 -8 11 -13z m42 -71 c23 -22 20 -54 -4 -54 -16 0 -20 7 -20 35 0 40
2 41 24 19z m266 -199 c0 -21 -27 -30 -46 -15 -12 11 -12 15 -2 21 21 14 48
10 48 -6z m-562 -263 c5 -17 -27 -27 -41 -13 -9 9 -8 14 3 21 18 11 32 8 38
-8z m42 -98 c0 -35 -1 -36 -28 -31 -21 4 -33 0 -46 -14 -19 -23 -36 -17 -36
12 0 12 7 19 18 19 11 0 24 11 30 25 8 17 20 25 37 25 22 0 25 -4 25 -36z
m-506 -137 l-7 -22 -8 23 c-5 12 -6 29 -2 38 5 15 7 15 15 0 5 -9 6 -26 2 -39z
m-346 -125 c8 -6 1 -13 -23 -25 -55 -26 -85 -18 -71 18 6 16 72 21 94 7z m502
-31 c0 -11 -4 -22 -8 -25 -14 -9 -35 12 -29 28 9 23 37 20 37 -3z m-618 3 c3
-3 1 -18 -5 -35 -9 -22 -9 -34 0 -48 11 -18 8 -20 -54 -27 -62 -6 -96 0 -94
19 1 4 1 18 1 31 0 33 34 41 54 12 12 -17 17 -19 33 -9 10 6 17 17 15 24 -5
21 7 39 26 39 10 0 21 -3 24 -6z m348 -2 c0 -14 -11 -21 -26 -15 -8 3 -11 9
-8 14 7 11 34 12 34 1z m330 -91 c0 -12 -20 -25 -27 -18 -7 7 6 27 18 27 5 0
9 -4 9 -9z m-540 -67 c0 -16 -16 -19 -25 -4 -8 13 4 32 16 25 5 -4 9 -13 9
-21z m-164 -15 c3 -6 1 -16 -5 -22 -6 -6 -11 -22 -11 -36 0 -48 -13 -54 -53
-24 -39 30 -42 46 -11 52 10 2 25 12 32 22 15 21 37 25 48 8z m277 -29 c7 -28
-25 -45 -54 -29 -21 11 -21 11 7 30 36 24 40 24 47 -1z m63 -133 c4 -3 4 -13
0 -22 -5 -15 -8 -15 -28 -1 -30 22 -55 20 -68 -4 -7 -13 -21 -20 -40 -20 -38
0 -47 16 -20 38 17 14 38 18 86 17 35 -1 67 -5 70 -8z m298 4 c11 -17 -6 -41
-28 -41 -30 0 -37 9 -25 31 10 20 44 26 53 10z m-369 -115 c17 -12 17 -13 -8
-20 -14 -3 -33 -3 -43 1 -16 6 -16 7 2 20 22 16 26 16 49 -1z m223 -14 c2 -7
-3 -12 -12 -12 -9 0 -16 7 -16 16 0 17 22 14 28 -4z m862 -56 c-14 -14 -22 -2
-14 18 5 14 9 15 15 4 4 -7 4 -17 -1 -22z m-685 4 c0 -7 -6 -15 -12 -17 -8 -3
-13 4 -13 17 0 13 5 20 13 18 6 -3 12 -11 12 -18z m-175 -5 c10 -12 9 -15 -8
-15 -13 0 -24 -10 -30 -27 -6 -17 -11 -21 -11 -11 -1 21 19 68 29 68 4 0 13
-7 20 -15z m-610 -94 c0 -5 10 -11 22 -13 37 -5 34 -28 -4 -28 -25 0 -36 6
-45 25 -10 22 -9 25 8 25 10 0 19 -4 19 -9z m550 -53 c-1 -7 -12 -26 -25 -43
-22 -26 -25 -27 -31 -11 -5 12 -1 23 9 31 10 7 17 17 17 24 0 6 7 11 15 11 8
0 15 -6 15 -12z m220 -2 c0 -8 -13 -19 -29 -24 -24 -9 -31 -7 -36 5 -3 9 0 20
7 25 21 13 58 9 58 -6z m90 -73 c0 -12 -9 -28 -20 -35 -20 -13 -29 -68 -12
-68 12 0 42 -67 42 -94 0 -13 -7 -40 -15 -60 -13 -31 -19 -36 -38 -30 -12 3
-28 11 -34 16 -9 7 -13 7 -13 0 0 -15 -90 -20 -102 -5 -15 18 -32 16 -70 -7
-32 -19 -32 -19 -55 2 -24 22 -53 19 -53 -7 0 -8 -7 -15 -15 -15 -11 0 -15 11
-15 39 0 47 -19 65 -58 56 -37 -8 -66 18 -58 49 3 12 6 29 6 39 0 13 8 17 36
17 27 0 35 -4 31 -14 -3 -8 1 -20 9 -26 8 -7 14 -19 14 -27 0 -10 5 -11 19 -4
25 14 47 -11 43 -50 -4 -38 17 -37 24 1 4 16 10 28 14 25 17 -10 70 17 70 36
0 10 -5 19 -11 19 -6 0 -9 6 -6 13 14 38 -40 62 -73 32 -15 -14 -20 -14 -41 4
l-24 19 27 11 c16 6 30 21 34 36 3 14 10 25 14 25 17 0 65 -31 81 -51 l17 -22
11 22 c14 25 31 19 31 -10 0 -25 30 -25 37 1 6 23 41 27 49 5 3 -8 -1 -24 -10
-37 -9 -12 -16 -30 -16 -39 0 -16 -34 -34 -75 -41 -27 -4 -29 -61 -2 -66 28
-6 86 44 80 68 -3 12 0 20 6 20 15 0 60 51 61 67 0 6 -7 19 -16 28 -21 21 -11
59 24 92 25 23 27 23 39 7 7 -10 13 -28 13 -41z m-254 26 c9 -15 -11 -33 -30
-26 -9 4 -13 13 -10 22 7 17 30 20 40 4z m482 -12 c3 -12 -3 -17 -22 -17 -25
0 -35 18 -19 34 12 12 38 2 41 -17z m57 -79 c25 -52 36 -103 14 -65 -13 22
-35 22 -48 0 -15 -27 -23 -9 -10 21 10 22 9 29 -5 45 -18 20 -12 51 10 51 8 0
25 -23 39 -52z m-1103 -14 c14 -14 20 -14 33 -4 8 7 15 8 15 3 0 -22 44 -31
76 -15 30 14 35 13 89 -12 42 -19 56 -30 53 -43 -2 -12 -14 -19 -36 -21 -18
-2 -32 -9 -32 -17 0 -8 -7 -11 -20 -8 -16 4 -20 0 -20 -19 0 -13 6 -33 14 -43
12 -17 18 -17 75 -5 34 7 64 11 66 8 3 -2 8 -19 11 -36 6 -32 6 -32 -34 -32
-23 0 -44 5 -47 10 -3 6 -15 10 -26 10 -35 0 -18 -33 29 -55 39 -20 41 -22 27
-40 -8 -11 -15 -28 -15 -37 0 -10 -5 -18 -12 -18 -9 0 -9 -3 -1 -11 8 -8 17
-8 31 0 30 16 40 14 58 -14 16 -24 15 -27 0 -44 -10 -11 -29 -22 -43 -26 -18
-4 -23 -9 -15 -17 7 -7 19 -7 41 0 27 9 31 9 30 -6 -1 -31 -26 -87 -37 -86 -7
1 -19 2 -27 3 -9 0 -20 13 -26 28 -8 21 -12 24 -19 13 -7 -12 -12 -11 -29 4
-12 11 -21 27 -21 36 0 9 -11 27 -25 40 -14 13 -25 32 -25 42 0 10 -10 28 -21
39 -19 19 -59 109 -59 131 0 18 44 6 62 -17 22 -28 56 -33 65 -10 7 21 3 24
-37 29 -32 4 -50 19 -50 45 0 10 -8 12 -30 8 -35 -8 -41 11 -10 31 23 14 27
52 6 52 -7 0 -21 -11 -30 -25 -30 -45 -67 -30 -81 33 -4 22 -17 40 -36 51 -27
17 -28 19 -12 34 10 8 29 17 43 20 14 2 27 5 29 6 3 0 13 -6 23 -15z m-205
-52 c-14 -34 -27 -50 -27 -34 0 7 -6 12 -14 12 -7 0 -20 10 -29 23 -14 21 -13
23 17 38 27 13 33 14 48 1 14 -11 15 -19 5 -40z m100 -24 c17 -24 20 -36 12
-50 -13 -25 -25 -23 -45 7 -16 24 -13 75 4 75 4 0 17 -15 29 -32z m617 0 c-16
-16 -19 -17 -26 -3 -12 21 -2 34 22 28 20 -5 20 -6 4 -25z m430 12 c26 -10 34
-34 16 -45 -16 -10 -70 5 -70 19 0 10 19 36 26 36 2 0 14 -4 28 -10z m-1200
-55 c15 -8 37 -15 47 -15 11 0 19 -4 19 -10 0 -5 -12 -10 -27 -10 -16 0 -44
-3 -63 -6 -31 -5 -37 -3 -47 19 -7 14 -9 28 -6 31 11 11 47 6 77 -9z m1366
-40 c0 -20 -5 -25 -24 -25 -22 0 -36 16 -36 41 0 5 14 9 30 9 25 0 30 -4 30
-25z m-720 -46 c0 -12 -7 -19 -18 -19 -28 0 -34 11 -16 31 19 21 34 16 34 -12z
m-620 1 c13 -8 13 -9 0 -14 -8 -2 -23 -7 -32 -10 -19 -6 -33 8 -23 24 8 12 35
13 55 0z m1834 1 c8 -12 -21 -34 -34 -26 -17 11 -11 35 9 35 11 0 22 -4 25 -9z
m-1724 -38 c0 -8 -13 -13 -30 -13 -36 0 -40 21 -7 35 23 11 37 2 37 -22z m110
21 c0 -9 10 -24 22 -34 l22 -17 -23 -13 c-20 -10 -22 -17 -17 -52 5 -30 3 -39
-6 -35 -7 2 -12 14 -11 26 2 16 -3 21 -20 21 -13 0 -28 -5 -34 -11 -6 -6 -17
-8 -24 -3 -9 5 -7 9 9 15 18 7 20 12 13 36 -5 15 -10 34 -12 42 -4 16 35 41
64 41 9 0 17 -7 17 -16z m-445 -90 c0 -12 -8 -20 -23 -22 -21 -3 -21 -2 -10
23 13 29 33 28 33 -1z m309 20 c18 -7 12 -24 -10 -24 -8 0 -14 7 -14 15 0 17
2 18 24 9z m801 -3 c3 -5 1 -13 -5 -16 -15 -9 -43 3 -35 15 8 13 32 13 40 1z
m845 -21 c0 -11 -4 -20 -10 -20 -5 0 -10 2 -10 4 0 2 -3 11 -6 20 -4 11 -1 16
10 16 9 0 16 -8 16 -20z m-720 -26 c0 -9 9 -23 21 -33 17 -14 20 -23 14 -54
-6 -32 -11 -37 -36 -37 -24 0 -29 5 -33 33 -8 44 -3 100 9 109 12 9 25 0 25
-18z m-290 -73 c-11 -22 -55 -30 -48 -8 5 12 49 39 56 32 2 -2 -1 -13 -8 -24z
m489 -37 c24 -30 27 -60 9 -67 -20 -6 -68 35 -68 58 0 43 29 47 59 9z m128
-10 c-9 -9 -28 6 -21 18 4 6 10 6 17 -1 6 -6 8 -13 4 -17z m-1387 -4 c0 -13
-7 -20 -20 -20 -19 0 -19 1 -3 20 10 11 19 20 20 20 2 0 3 -9 3 -20z m190 -10
c0 -5 -11 -10 -25 -10 -14 0 -25 5 -25 10 0 6 11 10 25 10 14 0 25 -4 25 -10z
m170 -55 c0 -20 -5 -25 -24 -25 -13 0 -26 -6 -29 -12 -2 -7 -7 -10 -11 -6 -10
9 22 56 42 61 9 3 18 5 20 6 1 0 2 -10 2 -24z m700 -6 c0 -23 -28 -26 -37 -3
-6 16 15 37 29 28 4 -3 8 -14 8 -25z m439 -10 c-7 -4 -17 -5 -22 -2 -5 3 -3 9
4 14 7 4 17 5 22 2 5 -3 3 -9 -4 -14z m-866 -55 c8 -8 -3 -34 -14 -34 -5 0 -9
9 -9 20 0 19 11 26 23 14z"/>
<path d="M7375 720 c3 -5 13 -10 21 -10 8 0 14 5 14 10 0 6 -9 10 -21 10 -11
0 -17 -4 -14 -10z"/>
<path d="M7615 580 c-11 -17 5 -32 21 -19 8 6 14 15 14 20 0 12 -27 11 -35 -1z"/>
<path d="M8180 4606 c0 -8 5 -18 10 -21 6 -3 10 3 10 14 0 12 -4 21 -10 21 -5
0 -10 -6 -10 -14z"/>
<path d="M8350 4606 c0 -7 -7 -19 -15 -26 -19 -16 -3 -30 26 -23 24 7 27 63 4
63 -8 0 -15 -6 -15 -14z"/>
<path d="M8420 4605 c0 -8 5 -15 10 -15 6 0 10 7 10 15 0 8 -4 15 -10 15 -5 0
-10 -7 -10 -15z"/>
<path d="M8490 4611 c0 -6 9 -16 20 -24 10 -7 24 -25 29 -40 15 -38 35 -33 54
13 24 62 67 52 67 -15 0 -17 8 -26 31 -34 18 -6 33 -11 35 -11 6 0 -8 64 -19
92 -11 25 -16 27 -64 27 -38 -1 -53 -5 -53 -15 0 -8 -10 -14 -25 -14 -16 0
-25 6 -25 15 0 9 -9 15 -25 15 -14 0 -25 -4 -25 -9z"/>
<path d="M8900 4605 c0 -16 17 -19 44 -9 22 9 10 24 -20 24 -15 0 -24 -6 -24
-15z"/>
<path d="M8978 4590 c-12 -7 -14 -17 -9 -37 12 -44 31 -40 31 6 0 23 -1 41 -2
41 -2 0 -10 -5 -20 -10z"/>
<path d="M8750 4560 c0 -25 4 -31 18 -28 11 2 17 12 17 28 0 16 -6 26 -17 28
-14 3 -18 -3 -18 -28z"/>
<path d="M8470 4554 c0 -16 39 -58 47 -50 3 3 3 16 -1 29 -6 27 -46 45 -46 21z"/>
<path d="M4431 4531 c-6 -11 -11 -35 -11 -53 0 -34 -19 -103 -40 -150 -10 -22
-9 -34 5 -71 9 -25 14 -53 11 -64 -3 -10 3 -31 14 -48 26 -39 25 -51 -6 -121
-23 -52 -24 -62 -14 -100 15 -52 4 -89 -45 -158 -23 -33 -35 -61 -35 -83 0
-38 -4 -37 104 -22 64 9 95 8 145 -2 78 -17 88 -34 32 -56 -32 -12 -41 -21
-41 -40 0 -31 18 -37 63 -18 46 19 47 19 47 -5 0 -14 -9 -20 -37 -25 -21 -3
-49 -9 -63 -13 -14 -5 -40 -5 -58 0 -20 6 -40 5 -53 -2 -17 -9 -19 -18 -15
-53 3 -23 8 -103 12 -178 6 -148 13 -171 41 -153 16 10 19 32 23 177 3 111 9
170 17 178 10 10 13 9 17 -2 2 -8 9 -29 15 -48 6 -19 11 -89 11 -156 0 -88 4
-126 14 -140 12 -16 16 -17 30 -6 13 11 16 38 16 168 0 119 3 154 13 151 14
-5 24 -91 28 -243 l2 -110 -31 -20 c-39 -25 -39 -31 -4 -49 35 -18 76 -95 60
-113 -8 -10 -14 -10 -24 -2 -18 15 -34 3 -34 -27 0 -27 27 -34 37 -9 5 14 7
14 22 1 10 -9 22 -12 30 -7 34 21 71 -17 71 -74 0 -36 53 -64 150 -78 20 -3
25 31 7 51 -9 9 -17 35 -19 56 -3 43 -6 45 -89 71 -66 20 -85 46 -63 86 19 34
17 44 -12 76 -51 55 -54 70 -47 223 3 77 10 143 15 146 4 3 8 15 8 26 0 12 9
41 21 65 29 60 23 83 -29 108 -37 17 -45 27 -57 70 -9 27 -28 65 -44 85 -45
57 -52 76 -50 152 1 60 -3 82 -25 123 -22 45 -24 55 -16 100 6 28 15 60 21 71
21 40 -6 181 -46 239 -11 17 -24 44 -30 60 -12 37 -48 46 -64 16z"/>
<path d="M8664 4459 c-11 -18 11 -31 40 -23 21 5 24 9 15 20 -14 17 -45 18
-55 3z"/>
<path d="M8210 4446 c0 -9 7 -16 16 -16 9 0 14 5 12 12 -6 18 -28 21 -28 4z"/>
<path d="M8272 4414 c-8 -14 -20 -18 -51 -15 -24 1 -41 -2 -41 -8 0 -6 16 -11
35 -11 24 0 37 -6 45 -20 14 -27 40 -25 41 3 3 53 -13 80 -29 51z"/>
<path d="M5907 4129 c-11 -12 -15 -28 -12 -40 7 -23 33 -25 41 -4 4 8 17 15
30 15 27 0 28 3 14 31 -14 25 -51 24 -73 -2z"/>
<path d="M6040 3869 c0 -5 6 -9 14 -9 8 0 16 -7 20 -15 8 -22 29 -18 55 9 l22
23 -56 0 c-30 0 -55 -4 -55 -8z"/>
<path d="M5988 3823 c-2 -22 -9 -29 -29 -31 -21 -2 -26 -8 -22 -22 6 -24 64
-34 80 -13 16 20 43 9 43 -17 0 -34 -19 -60 -43 -60 -31 -1 -57 -23 -57 -49 0
-12 -5 -32 -11 -43 -9 -18 -6 -26 24 -55 31 -31 36 -34 55 -22 11 7 24 22 28
34 6 18 7 17 11 -8 3 -16 11 -31 19 -34 23 -9 16 -27 -17 -47 -27 -16 -32 -16
-47 -2 -21 18 -37 10 -51 -28 -14 -35 -6 -49 20 -36 16 9 19 7 19 -10 0 -26
-20 -34 -65 -26 -26 5 -33 11 -28 23 5 13 2 15 -18 10 -13 -4 -27 -7 -30 -7
-8 0 -42 -70 -37 -74 1 -2 13 -9 26 -15 24 -13 26 -19 13 -39 -7 -12 -12 -12
-30 0 -20 12 -24 10 -40 -11 -15 -19 -23 -22 -49 -16 -25 5 -32 3 -32 -8 0 -8
11 -18 25 -21 14 -4 25 -11 25 -16 0 -20 31 -9 40 14 8 22 12 24 38 14 42 -16
62 -5 62 35 0 43 18 58 72 63 24 3 54 5 68 7 20 2 25 7 25 30 0 16 7 32 16 38
9 5 20 20 23 34 8 32 18 32 34 -2 18 -39 15 -52 -13 -63 -20 -8 -25 -17 -27
-50 -1 -22 -2 -47 -2 -57 -2 -37 24 -21 45 27 17 39 30 54 55 65 19 8 34 19
34 24 0 6 0 14 0 19 0 7 -5 9 -40 11 -19 1 -60 68 -60 98 0 14 42 34 63 30 7
-1 11 6 9 16 -2 10 3 17 13 17 19 0 50 62 41 85 -4 12 -16 15 -43 13 -46 -4
-58 -28 -14 -28 21 0 31 -5 31 -15 0 -27 -28 -28 -62 -2 -30 24 -33 30 -33 79
0 52 1 53 28 51 15 -1 27 2 27 6 0 10 -50 46 -65 47 -5 0 -17 4 -25 7 -8 3
-31 8 -50 9 -28 2 -36 8 -38 26 -5 31 -30 28 -34 -5z"/>
<path d="M4423 3590 c-21 -9 -23 -40 -3 -40 14 0 40 31 35 41 -4 5 -7 9 -8 8
-1 0 -12 -4 -24 -9z"/>
<path d="M5865 3580 c-20 -22 -10 -44 23 -52 15 -4 17 1 14 34 -5 43 -11 46
-37 18z"/>
<path d="M4313 3583 c-20 -7 -15 -23 6 -23 28 0 52 11 45 21 -6 10 -31 11 -51
2z"/>
<path d="M4250 3563 c-8 -2 -21 -7 -29 -9 -10 -3 -11 -8 -3 -16 14 -14 62 -1
62 17 0 16 -5 17 -30 8z"/>
<path d="M5443 3503 c-17 -54 4 -91 57 -99 30 -5 40 -11 40 -25 0 -11 5 -19
10 -19 7 0 8 13 5 34 -8 41 7 54 41 35 27 -14 39 -8 31 15 -6 16 -45 17 -80 2
-25 -11 -60 0 -75 24 -11 17 -10 20 7 20 41 0 38 31 -4 44 -17 5 -22 -1 -32
-31z"/>
<path d="M6279 3518 c0 -2 -2 -20 -5 -40 -4 -31 -1 -38 17 -43 15 -5 18 -10
10 -18 -16 -16 -14 -37 3 -37 8 0 16 10 18 23 2 15 9 21 21 19 23 -4 22 15 -3
28 -13 7 -20 21 -20 40 0 23 -4 30 -20 30 -11 0 -20 -1 -21 -2z"/>
<path d="M5277 3503 c-14 -13 -6 -23 18 -23 28 0 34 15 9 24 -19 7 -19 7 -27
-1z"/>
<path d="M7135 3490 c-3 -5 -20 -10 -36 -10 -23 0 -32 -6 -39 -26 -12 -31 -6
-44 21 -44 15 0 19 -7 19 -32 0 -25 6 -36 25 -45 24 -11 36 -1 15 12 -16 10
-12 85 4 85 9 0 16 -12 18 -27 3 -26 6 -28 43 -25 50 4 64 16 36 34 -11 7 -21
20 -21 30 0 18 -45 58 -66 58 -7 0 -16 -4 -19 -10z"/>
<path d="M4330 3477 c0 -7 7 -39 15 -70 9 -35 15 -102 15 -167 0 -101 8 -135
28 -115 4 4 7 87 7 186 l0 179 -32 0 c-20 0 -33 -5 -33 -13z"/>
<path d="M8158 3479 c-10 -5 -28 -9 -40 -8 -41 4 -58 -1 -58 -15 0 -37 107
-26 121 12 9 24 3 27 -23 11z"/>
<path d="M5892 3459 c2 -6 8 -10 13 -10 5 0 11 4 13 10 2 6 -4 11 -13 11 -9 0
-15 -5 -13 -11z"/>
<path d="M7610 3455 c0 -8 5 -15 10 -15 6 0 10 7 10 15 0 8 -4 15 -10 15 -5 0
-10 -7 -10 -15z"/>
<path d="M4270 3447 c0 -8 6 -30 14 -48 l14 -34 8 29 c7 30 -3 57 -24 64 -7 2
-12 -3 -12 -11z"/>
<path d="M6210 3441 c0 -9 34 -41 43 -41 17 0 4 26 -18 37 -14 6 -25 8 -25 4z"/>
<path d="M7566 3422 c-10 -16 2 -66 20 -79 25 -19 33 -16 44 13 15 37 13 42
-20 59 -33 17 -37 18 -44 7z"/>
<path d="M6391 3389 c-20 -26 -21 -32 -8 -42 13 -10 13 -16 0 -46 -14 -32 -14
-33 -34 -15 -11 10 -18 23 -15 30 6 15 -10 29 -41 36 -15 4 -20 2 -17 -7 3 -7
-3 -16 -14 -19 -10 -4 -32 -20 -48 -36 -16 -16 -35 -30 -42 -30 -26 0 -7 -35
23 -41 26 -6 26 -7 6 -8 -13 0 -30 -9 -37 -18 -13 -17 -15 -17 -28 0 -13 17
-16 14 -47 -33 -18 -27 -38 -50 -46 -50 -19 0 -16 -27 3 -34 14 -5 13 -10 -10
-31 -14 -13 -26 -31 -26 -40 0 -20 37 -19 48 2 9 16 11 16 36 0 33 -22 34 -22
38 11 2 22 8 28 35 30 17 2 43 14 57 27 14 13 35 26 46 30 21 7 27 30 10 40
-16 10 -12 33 9 54 20 20 20 19 56 -20 40 -44 59 -45 75 -4 34 87 30 82 45 62
12 -17 15 -17 44 -3 16 9 36 16 44 16 7 0 21 6 31 13 15 11 16 17 5 40 -8 18
-19 26 -33 24 -16 -2 -22 4 -24 26 -3 28 -13 32 -64 28 -22 -2 -28 2 -28 18 0
30 -23 26 -49 -10z m133 -106 c8 -20 -11 -34 -43 -31 -35 4 -37 24 -4 36 39
14 40 14 47 -5z m-243 -25 c-4 -13 -18 -24 -30 -26 -27 -4 -28 18 -1 25 11 3
20 9 20 14 0 5 4 9 10 9 5 0 6 -9 1 -22z m-181 -156 c0 -14 -11 -21 -26 -15
-21 8 -17 23 6 23 11 0 20 -4 20 -8z"/>
<path d="M7812 3395 c-12 -14 -26 -25 -32 -25 -5 0 -10 -4 -10 -10 0 -5 6 -10
14 -10 22 0 29 -19 14 -37 -7 -9 -8 -14 -2 -10 6 4 19 -2 29 -13 10 -11 23
-20 28 -20 6 0 3 8 -6 18 -19 20 -22 48 -7 54 13 4 17 70 4 75 -5 2 -20 -8
-32 -22z"/>
<path d="M6562 3358 c6 -18 28 -21 28 -4 0 9 -7 16 -16 16 -9 0 -14 -5 -12
-12z"/>
<path d="M6654 3346 c-7 -18 25 -51 59 -60 18 -4 24 -11 21 -24 -4 -12 4 -21
27 -29 48 -18 59 4 19 37 -17 14 -30 35 -30 48 0 17 -6 22 -26 22 -14 0 -34 5
-45 10 -15 8 -21 7 -25 -4z"/>
<path d="M7877 3354 c-14 -15 -6 -34 14 -34 14 0 19 5 17 17 -3 18 -20 27 -31
17z"/>
<path d="M7330 3318 c-8 -13 -18 -31 -22 -40 -8 -20 -29 -23 -45 -7 -8 8 -17
8 -32 0 -33 -18 -26 -48 18 -75 22 -14 42 -30 46 -36 5 -8 11 -8 20 0 10 8 19
8 35 0 26 -14 43 -4 35 21 -5 14 -2 19 11 19 10 0 26 8 36 17 17 15 20 15 48
-6 32 -23 36 -21 19 11 -8 14 -8 23 0 31 6 6 11 18 11 27 -1 13 -3 12 -14 -2
-9 -12 -27 -18 -55 -18 -45 0 -53 13 -19 31 l22 12 -23 18 c-32 26 -73 24 -91
-3z m52 -110 c-6 -6 -19 -7 -29 -4 -16 7 -16 9 7 28 23 19 25 19 28 3 2 -9 -1
-22 -6 -27z"/>
<path d="M7065 3320 c-3 -6 -17 -7 -31 -4 -13 3 -32 3 -41 -2 -14 -6 -10 -9
17 -13 33 -6 35 -8 35 -46 0 -27 7 -46 23 -62 13 -13 26 -23 29 -23 9 0 83 80
83 90 0 14 -30 32 -45 26 -8 -3 -14 -15 -12 -27 1 -12 -4 -24 -12 -27 -10 -3
-12 2 -7 22 12 50 -17 101 -39 66z"/>
<path d="M7880 3258 c0 -22 26 -24 34 -2 9 22 8 23 -14 21 -12 -1 -20 -8 -20
-19z"/>
<path d="M6000 3245 c-10 -11 -9 -18 4 -30 20 -21 20 -22 -4 -52 -24 -31 -25
-43 -5 -43 18 0 44 27 67 69 16 30 16 33 0 51 -20 24 -45 26 -62 5z"/>
<path d="M5925 3240 c-6 -10 29 -50 45 -50 16 0 12 14 -10 38 -23 25 -26 26
-35 12z"/>
<path d="M6898 3236 c-10 -7 -18 -17 -18 -21 0 -4 6 -2 14 4 24 20 69 9 83
-19 14 -29 36 -33 41 -7 2 9 -2 17 -10 17 -7 0 -24 9 -38 20 -29 23 -48 24
-72 6z"/>
<path d="M7776 3242 c-3 -5 -8 -28 -12 -50 -6 -37 -4 -42 13 -42 21 0 63 39
63 58 0 18 -22 26 -32 11 -7 -11 -8 -10 -6 5 3 20 -16 33 -26 18z"/>
<path d="M7934 3198 c8 -42 10 -43 46 -28 l32 13 -29 23 c-41 34 -57 31 -49
-8z"/>
<path d="M8022 3188 c6 -18 28 -21 28 -4 0 9 -7 16 -16 16 -9 0 -14 -5 -12
-12z"/>
<path d="M7593 3183 c-17 -6 -16 -23 1 -23 8 0 16 7 20 15 6 15 1 17 -21 8z"/>
<path d="M7852 3173 c2 -9 9 -18 16 -21 18 -6 15 25 -4 32 -11 4 -14 1 -12
-11z"/>
<path d="M7158 3173 c-23 -6 -23 -29 -1 -37 19 -8 34 10 26 31 -3 7 -6 12 -7
12 0 -1 -9 -3 -18 -6z"/>
<path d="M5870 3150 c0 -15 7 -20 29 -20 37 0 48 15 22 29 -31 17 -51 13 -51
-9z"/>
<path d="M5210 3146 c-20 -9 -20 -9 -1 -30 18 -19 18 -24 6 -53 -12 -28 -19
-33 -49 -33 -30 0 -37 4 -42 25 -3 14 -11 25 -18 25 -19 0 -66 -49 -60 -64 3
-8 1 -17 -5 -21 -20 -12 -11 -33 15 -38 24 -4 30 -1 62 38 12 14 15 14 29 -1
15 -15 18 -14 34 8 17 22 19 22 31 5 12 -15 13 -13 14 19 0 30 8 43 37 67 49
39 50 68 2 64 -19 -1 -44 -6 -55 -11z"/>
<path d="M6900 3142 c-20 -16 -21 -20 -7 -25 9 -3 18 0 21 9 3 8 12 14 21 14
8 0 15 5 15 10 0 16 -26 12 -50 -8z"/>
<path d="M7430 3150 c0 -5 6 -10 14 -10 8 0 18 5 21 10 3 6 -3 10 -14 10 -12
0 -21 -4 -21 -10z"/>
<path d="M5357 3144 c-8 -8 1 -24 14 -24 5 0 9 7 9 15 0 15 -12 20 -23 9z"/>
<path d="M6324 3129 c-3 -6 0 -15 7 -20 8 -5 14 -19 14 -31 0 -17 7 -24 24
-26 41 -6 47 14 15 52 -30 36 -48 44 -60 25z"/>
<path d="M6565 3130 c-3 -6 0 -12 7 -14 7 -2 28 -9 47 -15 36 -12 65 0 46 18
-16 14 -93 22 -100 11z"/>
<path d="M6710 3125 c0 -8 7 -15 15 -15 8 0 15 7 15 15 0 8 -7 15 -15 15 -8 0
-15 -7 -15 -15z"/>
<path d="M7312 3129 c2 -6 8 -10 13 -10 5 0 11 4 13 10 2 6 -4 11 -13 11 -9 0
-15 -5 -13 -11z"/>
<path d="M7920 3115 c-10 -19 -11 -28 -2 -37 15 -15 20 -9 32 31 11 39 -10 43
-30 6z"/>
<path d="M5495 3120 c-3 -5 1 -10 9 -10 8 0 18 5 21 10 3 6 -1 10 -9 10 -8 0
-18 -4 -21 -10z"/>
<path d="M5940 3105 c-18 -35 -44 -39 -48 -7 -2 12 -8 22 -14 22 -6 0 -8 -9
-3 -22 8 -28 8 -35 -1 -71 -6 -25 -4 -28 12 -25 11 2 20 13 22 25 2 15 8 19
22 16 24 -6 33 12 28 59 l-3 33 -15 -30z"/>
<path d="M7084 3119 c-10 -17 13 -36 27 -22 12 12 4 33 -11 33 -5 0 -12 -5
-16 -11z"/>
<path d="M7157 3113 c-11 -11 -8 -48 5 -61 12 -12 48 -17 48 -7 0 3 -7 21 -14
40 -15 34 -26 42 -39 28z"/>
<path d="M5553 3097 c-4 -8 -17 -17 -27 -21 -15 -5 -17 -9 -7 -19 10 -9 15 -8
25 6 8 10 26 17 45 17 21 0 31 5 31 15 0 19 -56 21 -67 2z"/>
<path d="M6490 3102 c0 -5 7 -13 16 -16 10 -4 14 -1 12 6 -5 15 -28 23 -28 10z"/>
<path d="M7382 3088 c1 -15 -5 -34 -15 -46 -16 -18 -16 -20 -1 -33 23 -19 45
13 37 55 -7 40 -26 61 -21 24z"/>
<path d="M5792 3078 c3 -7 13 -15 22 -16 12 -3 17 1 14 10 -3 7 -13 15 -22 16
-12 3 -17 -1 -14 -10z"/>
<path d="M6730 3071 c-14 -27 -13 -31 8 -31 27 0 44 21 31 37 -16 18 -27 16
-39 -6z"/>
<path d="M7821 3077 c-18 -18 -13 -31 19 -45 16 -7 32 -22 35 -33 8 -24 48
-22 53 2 4 23 -92 91 -107 76z"/>
<path d="M5430 3065 c0 -9 5 -15 11 -13 6 2 11 8 11 13 0 5 -5 11 -11 13 -6 2
-11 -4 -11 -13z"/>
<path d="M5655 3070 c-3 -5 2 -23 12 -40 17 -29 17 -30 -2 -45 -20 -14 -20
-14 0 -15 22 0 65 26 65 39 0 9 -54 71 -63 71 -3 0 -9 -4 -12 -10z"/>
<path d="M6555 3069 c-4 -6 -5 -13 -2 -16 7 -7 27 6 27 18 0 12 -17 12 -25 -2z"/>
<path d="M7435 3071 c-7 -13 32 -34 68 -36 30 -2 31 -1 17 26 -11 20 -74 28
-85 10z"/>
<path d="M6440 3041 c0 -12 6 -21 16 -21 9 0 14 7 12 17 -5 25 -28 28 -28 4z"/>
<path d="M6628 3026 c-9 -22 -7 -28 21 -51 17 -15 31 -33 31 -41 0 -19 26 -18
34 2 11 28 7 44 -9 38 -11 -5 -13 -2 -9 10 3 9 3 27 0 41 -9 34 -52 35 -68 1z"/>
<path d="M7577 3043 c-14 -13 -6 -24 15 -21 27 4 36 28 11 28 -11 0 -23 -3
-26 -7z"/>
<path d="M7662 3033 c4 -22 43 -25 43 -3 0 8 -11 16 -23 18 -19 3 -23 0 -20
-15z"/>
<path d="M5460 3005 c-7 -9 -9 -26 -5 -45 8 -35 22 -40 27 -7 2 18 8 21 31 19
23 -3 27 0 27 22 0 23 -4 26 -34 26 -18 0 -39 -7 -46 -15z"/>
<path d="M7087 2995 c-16 -22 -16 -26 -3 -31 15 -6 55 30 56 49 0 17 -36 4
-53 -18z"/>
<path d="M7205 3000 c-8 -25 1 -40 24 -40 9 0 22 -5 29 -12 9 -9 15 -9 23 -1
15 15 5 42 -18 49 -10 3 -26 10 -35 14 -13 7 -18 5 -23 -10z"/>
<path d="M5330 2985 c0 -20 5 -25 24 -25 37 0 40 17 6 35 -30 15 -30 15 -30
-10z"/>
<path d="M6535 2990 c-7 -12 2 -30 16 -30 12 0 12 27 0 35 -5 3 -12 1 -16 -5z"/>
<path d="M7972 2988 c-17 -17 -15 -28 6 -28 24 0 32 8 25 26 -6 17 -15 18 -31
2z"/>
<path d="M6406 2975 c-4 -11 -21 -15 -60 -15 -39 0 -55 -4 -60 -15 -3 -8 -16
-15 -30 -15 -14 0 -28 -5 -31 -10 -4 -7 -13 -7 -26 0 -12 7 -19 7 -19 1 0 -6
-12 -17 -27 -25 l-28 -14 38 -7 c28 -5 37 -12 35 -24 -2 -9 -13 -17 -26 -19
-26 -4 -45 -35 -46 -77 -1 -26 -5 -31 -36 -35 -29 -4 -36 -10 -40 -35 -5 -26
-9 -30 -34 -27 -19 2 -27 -1 -24 -10 3 -8 18 -12 44 -10 61 5 72 11 79 43 6
25 11 30 33 29 15 -1 33 -2 40 -1 14 1 16 37 2 46 -5 3 -10 17 -10 31 0 29 30
33 56 7 10 -10 22 -18 28 -18 6 0 11 -11 11 -25 0 -20 -6 -26 -27 -28 -16 -2
-28 -6 -29 -10 -4 -31 -7 -51 -14 -76 -8 -28 -7 -28 26 -21 28 6 32 5 22 -6
-29 -29 -11 -62 41 -75 23 -5 27 -4 21 7 -5 7 -10 25 -11 38 -2 14 -11 31 -20
38 -15 11 -16 17 -4 53 15 45 17 46 40 25 13 -11 24 -13 50 -5 18 5 36 8 38 5
2 -2 11 3 20 11 17 18 61 11 78 -12 16 -20 29 -17 48 11 22 34 52 32 71 -4 10
-21 22 -29 37 -29 49 3 66 41 23 52 -22 6 -24 9 -15 26 6 11 21 20 34 20 31 0
50 22 34 38 -7 7 -23 12 -37 12 -24 1 -25 2 -8 14 9 7 17 18 17 25 0 16 25 14
40 -4 18 -21 43 -19 58 6 7 12 12 22 10 22 -2 1 -13 8 -25 15 -30 16 -58 15
-73 -3 -7 -8 -16 -15 -21 -15 -5 0 -9 7 -9 15 0 21 -37 19 -49 -2 -9 -17 -10
-17 -17 1 -5 13 -2 23 9 31 22 16 21 21 -4 46 -16 16 -23 18 -35 8 -20 -16
-14 -166 7 -180 10 -6 5 -9 -18 -9 -28 0 -32 -3 -35 -32 -2 -25 -8 -34 -25
-36 -31 -5 -30 26 2 57 26 24 32 46 15 56 -5 3 -10 19 -10 36 0 16 -4 29 -9
29 -11 0 -21 -25 -21 -56 0 -27 -11 -30 -40 -12 -15 9 -24 9 -43 -1 -26 -14
-52 -6 -77 23 -15 19 -66 21 -76 4 -4 -6 -2 -14 4 -16 7 -2 12 -16 11 -30 0
-25 -1 -26 -12 -8 -7 10 -22 31 -34 46 -31 38 -29 50 9 50 17 0 40 8 51 18 15
13 34 16 83 15 68 -3 76 1 67 35 -6 25 -28 29 -37 7z m-49 -186 c-14 -8 -22
-8 -30 0 -8 8 -3 11 19 11 25 -1 27 -2 11 -11z m53 -39 c0 -10 -4 -21 -9 -25
-12 -7 -25 31 -16 45 9 15 25 2 25 -20z"/>
<path d="M5581 2971 c-9 -6 -11 -18 -7 -36 5 -21 3 -28 -13 -32 -22 -6 -35
-43 -21 -57 15 -15 65 28 63 52 -1 11 4 26 12 32 20 16 19 36 -1 44 -19 7 -16
8 -33 -3z"/>
<path d="M6122 2965 c-7 -8 -28 -15 -47 -15 -39 0 -39 1 -25 -34 14 -38 52
-35 67 5 7 17 21 33 32 36 12 3 21 9 21 14 0 14 -34 10 -48 -6z"/>
<path d="M7868 2959 c-17 -9 -26 -39 -12 -39 12 0 53 38 47 44 -8 8 -15 7 -35
-5z"/>
<path d="M6800 2950 c0 -5 7 -10 15 -10 8 0 15 5 15 10 0 6 -7 10 -15 10 -8 0
-15 -4 -15 -10z"/>
<path d="M7332 2939 c2 -6 8 -10 13 -10 5 0 11 4 13 10 2 6 -4 11 -13 11 -9 0
-15 -5 -13 -11z"/>
<path d="M4940 2930 c-11 -7 -5 -10 23 -10 23 0 36 4 32 10 -8 13 -35 13 -55
0z"/>
<path d="M4242 2923 c-27 -10 2 -23 49 -23 35 0 49 4 47 12 -4 12 -71 19 -96
11z"/>
<path d="M7037 2924 c-13 -13 -7 -24 14 -24 11 0 19 5 17 12 -5 14 -22 21 -31
12z"/>
<path d="M7410 2915 c0 -8 5 -15 10 -15 6 0 10 7 10 15 0 8 -4 15 -10 15 -5 0
-10 -7 -10 -15z"/>
<path d="M5765 2899 c-10 -15 3 -25 16 -12 7 7 7 13 1 17 -6 3 -14 1 -17 -5z"/>
<path d="M5862 2892 c-21 -14 -21 -16 -6 -33 9 -10 14 -25 11 -33 -8 -21 -107
-14 -119 8 -16 28 -29 17 -26 -21 3 -36 4 -38 37 -35 18 1 40 -3 47 -9 19 -16
73 7 84 36 7 18 19 23 69 29 33 4 63 11 66 16 10 16 -52 51 -79 44 -13 -3 -32
-1 -43 4 -13 7 -25 5 -41 -6z"/>
<path d="M5122 2888 c-7 -7 -12 -18 -12 -25 0 -18 29 -16 37 3 8 21 -10 37
-25 22z"/>
<path d="M5230 2873 l-35 -24 50 3 c43 3 50 6 53 26 4 30 -22 28 -68 -5z"/>
<path d="M5480 2884 c0 -17 22 -14 28 4 2 7 -3 12 -12 12 -9 0 -16 -7 -16 -16z"/>
<path d="M5650 2880 c-9 -17 -8 -20 9 -20 32 0 50 11 44 26 -8 21 -41 17 -53
-6z"/>
<path d="M6868 2860 c-12 -16 -28 -30 -36 -30 -12 0 -12 -3 2 -19 11 -12 14
-21 7 -26 -18 -10 -12 -25 9 -25 13 0 20 7 20 19 0 10 9 21 21 24 18 5 19 8 9
27 -7 12 -10 31 -7 41 7 26 1 24 -25 -11z"/>
<path d="M7210 2874 c-9 -10 -10 -18 -2 -26 12 -12 32 -2 32 17 0 21 -16 26
-30 9z"/>
<path d="M5340 2860 c0 -5 7 -10 15 -10 8 0 15 5 15 10 0 6 -7 10 -15 10 -8 0
-15 -4 -15 -10z"/>
<path d="M6950 2846 c0 -25 16 -36 54 -36 34 0 36 9 9 36 -32 32 -63 32 -63 0z"/>
<path d="M7663 2863 c-7 -3 -13 -9 -13 -14 0 -12 37 -12 44 0 7 11 -14 20 -31
14z"/>
<path d="M5076 2844 c-8 -22 4 -40 15 -23 11 18 11 39 0 39 -5 0 -12 -7 -15
-16z"/>
<path d="M5931 2774 c-59 -44 -75 -74 -50 -90 7 -4 16 1 21 10 9 16 11 16 29
1 18 -17 49 -14 49 4 0 5 -9 13 -20 16 -11 3 -20 10 -20 14 0 15 60 51 85 51
31 0 34 25 3 34 -34 9 -31 10 -97 -40z"/>
<path d="M6770 2810 c-13 -9 -13 -11 0 -20 18 -11 39 5 24 20 -6 6 -15 6 -24
0z"/>
<path d="M5158 2796 c-35 -26 -15 -48 32 -36 16 4 25 13 25 25 0 24 -33 30
-57 11z"/>
<path d="M5424 2799 c-4 -6 0 -16 10 -21 20 -11 21 -28 1 -28 -17 0 -20 -16
-4 -25 13 -8 44 23 53 53 6 17 4 21 -8 16 -9 -4 -23 -1 -30 5 -11 9 -16 9 -22
0z"/>
<path d="M6985 2771 c-6 -11 9 -23 19 -14 9 9 7 23 -3 23 -6 0 -12 -4 -16 -9z"/>
<path d="M5106 2735 c-9 -23 -8 -25 9 -25 17 0 19 9 6 28 -7 11 -10 10 -15 -3z"/>
<path d="M5520 2735 c0 -8 7 -15 16 -15 14 0 14 3 4 15 -7 8 -14 15 -16 15 -2
0 -4 -7 -4 -15z"/>
<path d="M7675 2740 c-4 -7 -3 -16 1 -20 11 -11 74 2 77 15 3 14 -70 18 -78 5z"/>
<path d="M5718 2708 c-14 -12 -32 -58 -22 -58 13 0 64 46 64 57 0 16 -21 17
-42 1z"/>
<path d="M6890 2685 c-11 -13 -8 -15 19 -15 20 0 35 -7 43 -20 15 -23 28 -26
28 -6 0 16 -46 56 -65 56 -7 0 -18 -7 -25 -15z"/>
<path d="M7965 2681 c-7 -12 12 -24 25 -16 11 7 4 25 -10 25 -5 0 -11 -4 -15
-9z"/>
<path d="M7160 2665 c0 -8 5 -15 10 -15 6 0 10 7 10 15 0 8 -4 15 -10 15 -5 0
-10 -7 -10 -15z"/>
<path d="M6761 2661 c-22 -14 -3 -31 35 -31 25 0 42 -8 60 -27 13 -14 27 -23
31 -20 7 8 -25 47 -39 47 -4 0 -17 9 -28 20 -22 22 -37 25 -59 11z"/>
<path d="M8190 2651 c0 -11 4 -21 9 -21 18 0 21 18 6 30 -13 10 -15 9 -15 -9z"/>
<path d="M5226 2651 c5 -5 21 -13 37 -16 22 -6 26 -4 21 9 -4 10 -18 16 -37
16 -19 0 -27 -4 -21 -9z"/>
<path d="M5757 2638 c-30 -16 -36 -23 -26 -34 6 -8 18 -14 26 -14 7 0 16 -7
19 -15 10 -24 23 -17 32 18 7 25 14 31 30 30 26 -3 30 22 6 31 -24 9 -45 5
-87 -16z"/>
<path d="M6582 2648 c-7 -7 -12 -17 -12 -24 0 -6 -10 -18 -22 -27 -25 -16 -24
-21 10 -31 18 -6 22 -3 22 13 0 12 9 30 20 41 11 11 20 25 20 30 0 14 -23 13
-38 -2z"/>
<path d="M5902 2639 c2 -6 8 -10 13 -10 5 0 11 4 13 10 2 6 -4 11 -13 11 -9 0
-15 -5 -13 -11z"/>
<path d="M7994 2641 c-17 -4 -36 -11 -43 -15 -20 -12 7 -36 40 -36 22 0 32 6
39 26 15 39 17 37 -36 25z"/>
<path d="M5360 2630 c0 -5 5 -10 10 -10 6 0 15 -11 20 -25 11 -30 40 -33 40
-5 0 11 -6 20 -14 20 -7 0 -19 7 -26 15 -14 17 -30 20 -30 5z"/>
<path d="M6677 2624 c-14 -14 -6 -24 19 -24 16 0 24 5 22 13 -5 14 -31 21 -41
11z"/>
<path d="M6406 2605 c-3 -9 -18 -15 -34 -15 -16 0 -35 -7 -43 -16 -12 -14 -8
-15 35 -9 49 8 89 31 80 47 -8 13 -31 9 -38 -7z"/>
<path d="M7520 2594 c0 -17 22 -14 28 4 2 7 -3 12 -12 12 -9 0 -16 -7 -16 -16z"/>
<path d="M6027 2593 c-14 -13 -6 -23 18 -23 14 0 28 -7 31 -15 9 -22 32 -18
39 6 4 11 5 22 3 23 -8 8 -86 15 -91 9z"/>
<path d="M7100 2583 c0 -10 4 -25 10 -33 8 -12 10 -12 16 3 7 20 -1 47 -16 47
-5 0 -10 -8 -10 -17z"/>
<path d="M8150 2585 c0 -10 11 -15 35 -15 36 0 47 13 19 24 -28 11 -54 6 -54
-9z"/>
<path d="M5899 2568 c-3 -29 3 -74 10 -81 5 -5 13 11 19 35 8 32 8 44 -1 50
-18 11 -27 10 -28 -4z"/>
<path d="M5498 2563 c-23 -6 -23 -19 -1 -27 12 -5 14 -9 5 -18 -21 -21 -13
-38 16 -38 40 0 57 13 37 30 -8 7 -15 23 -15 36 0 24 -7 26 -42 17z"/>
<path d="M5010 2542 c0 -11 3 -22 8 -24 16 -7 52 -69 52 -90 0 -13 7 -32 15
-42 8 -11 15 -28 15 -38 0 -10 5 -18 10 -18 6 0 10 -11 10 -25 0 -14 7 -42 15
-62 8 -19 15 -46 15 -60 0 -13 5 -34 12 -46 10 -19 24 -109 46 -297 l7 -55 48
-3 c26 -2 47 -7 47 -11 0 -5 9 -11 19 -14 10 -2 24 -14 30 -25 10 -19 8 -22
-24 -28 -42 -8 -89 -69 -64 -85 8 -5 22 -9 32 -9 21 0 23 -26 2 -38 -13 -7
-12 -10 10 -20 16 -8 26 -20 27 -37 0 -14 1 -31 2 -37 1 -7 -12 -19 -27 -26
-37 -18 -91 1 -84 29 3 10 -4 26 -14 35 -22 20 -16 62 13 82 11 8 18 23 16 35
-2 18 -13 24 -53 31 -35 6 -50 6 -53 -3 -2 -6 -13 -11 -24 -11 -18 0 -19 -4
-13 -42 4 -24 13 -50 21 -59 8 -8 14 -24 14 -35 0 -11 6 -26 12 -32 33 -33
-58 -44 -377 -48 -289 -3 -279 -2 -303 -11 -18 -7 -19 -10 -7 -27 13 -18 16
-18 39 -2 33 21 43 20 51 -4 6 -19 8 -19 28 -5 28 20 53 19 61 -1 6 -16 8 -16
24 0 23 20 51 21 58 1 4 -8 12 -15 19 -15 7 0 15 7 19 15 8 22 44 18 57 -7 11
-20 13 -20 24 -5 15 21 41 22 49 2 7 -19 25 -19 47 1 21 19 39 11 39 -17 0
-24 5 -24 42 2 28 21 29 21 34 2 4 -16 14 -19 62 -18 31 0 62 4 68 8 13 8 24
-1 24 -19 0 -7 -17 -16 -37 -19 -90 -15 -87 -11 -42 -57 l41 -42 -6 -71 c-3
-38 -8 -89 -12 -113 -3 -23 -2 -55 4 -70 6 -15 13 -43 17 -64 6 -42 18 -48 62
-36 l32 8 5 178 c6 212 6 214 25 229 23 16 28 9 36 -49 6 -45 9 -49 20 -35 24
33 28 16 21 -81 -13 -171 -13 -183 -4 -188 4 -3 8 -20 8 -39 0 -32 26 -65 63
-78 21 -8 -7 -28 -53 -38 -37 -8 -46 -7 -65 11 -12 11 -35 20 -53 20 -30 0
-32 -2 -32 -35 0 -33 1 -34 29 -29 24 5 30 2 36 -15 7 -22 7 -22 26 3 16 21
26 24 52 20 18 -4 41 -17 52 -30 25 -29 34 -30 51 -6 12 16 13 16 19 0 6 -14
15 -16 50 -12 45 7 76 -12 37 -23 -13 -3 -22 -15 -24 -32 l-3 -26 -130 -4
c-71 -2 -155 -3 -185 -2 -189 5 -802 1 -839 -6 -25 -5 -46 -13 -48 -19 -5 -16
27 -27 42 -14 6 5 14 8 16 6 2 -2 139 -7 304 -11 361 -9 667 -31 715 -52 18
-8 -78 -20 -167 -22 -95 -2 -77 -21 20 -21 l82 0 -33 -20 c-26 -16 -37 -18
-47 -10 -10 8 -55 10 -142 7 -70 -3 -132 -6 -138 -7 -5 -1 -67 2 -138 6 -113
6 -129 5 -146 -10 -12 -11 -25 -15 -32 -10 -7 4 -22 9 -33 10 -12 1 -50 5 -86
9 -45 5 -91 2 -148 -8 -57 -11 -91 -13 -108 -7 -41 16 -171 12 -206 -6 -21
-11 -44 -14 -72 -10 -96 14 -236 1 -272 -25 -6 -5 -21 -1 -33 8 -18 12 -37 14
-90 9 -36 -4 -76 -14 -89 -22 -18 -12 -41 -14 -105 -9 -71 6 -87 4 -121 -14
-32 -17 -50 -19 -98 -14 -51 5 -63 3 -88 -15 -23 -18 -37 -21 -73 -16 -28 4
-47 2 -51 -5 -12 -19 -35 -12 -66 20 -16 18 -30 33 -30 35 0 2 19 14 43 28 50
29 143 56 290 86 98 19 140 25 232 33 17 1 35 5 40 8 6 3 39 7 74 8 68 2 85 7
76 22 -9 13 -88 11 -190 -6 -49 -8 -125 -17 -168 -20 -44 -3 -86 -9 -95 -14
-10 -4 -47 -11 -84 -14 -38 -4 -77 -11 -88 -17 -12 -6 -35 -10 -52 -8 -27 2
-33 9 -40 36 -6 23 -5 38 2 48 19 21 130 74 159 74 45 1 93 54 84 91 -3 11
-12 19 -19 19 -19 0 -18 10 2 24 13 10 17 42 20 181 3 100 10 175 16 182 12
15 13 15 -24 31 -19 8 -28 19 -28 34 0 19 12 28 68 50 37 15 90 31 117 34 28
4 59 13 71 21 12 7 29 11 38 7 9 -3 23 -1 31 6 8 6 19 9 25 5 6 -4 17 -1 25 5
8 6 23 9 34 5 10 -3 22 -1 26 5 4 6 24 10 44 9 37 -3 61 5 61 21 0 16 -28 17
-105 4 -44 -8 -111 -17 -150 -20 -38 -2 -76 -10 -85 -17 -8 -7 -41 -14 -72
-16 -67 -3 -76 12 -32 56 18 18 24 32 20 49 -3 12 -2 34 4 48 7 20 17 26 39
26 34 0 48 15 31 35 -9 11 -7 16 9 25 14 7 21 21 21 40 0 16 4 31 9 34 5 3 15
30 21 58 7 29 17 59 22 65 6 7 8 23 5 35 -8 28 8 104 43 206 15 45 25 82 21
82 -4 0 -27 -20 -51 -45 -24 -25 -49 -45 -56 -45 -18 0 -46 -67 -48 -118 -2
-26 -8 -58 -15 -71 l-13 -23 -28 27 c-19 19 -30 23 -35 15 -4 -7 -23 -18 -42
-26 -43 -18 -34 -34 18 -34 35 0 40 -2 34 -19 -4 -14 0 -23 14 -31 17 -9 19
-15 11 -36 -13 -33 -13 -30 12 -54 18 -17 19 -20 5 -20 -9 0 -17 -4 -17 -10 0
-5 -9 -10 -20 -10 -10 0 -24 -9 -30 -19 -6 -13 -30 -24 -66 -32 -52 -12 -55
-14 -49 -38 16 -61 9 -122 -10 -91 -3 6 -14 10 -24 10 -26 0 -46 51 -31 79 12
23 5 61 -11 61 -30 0 -60 -66 -35 -76 9 -3 16 -16 16 -28 1 -37 34 -91 58 -94
24 -4 29 -16 10 -26 -53 -26 -73 -45 -76 -71 -4 -30 31 -104 56 -118 8 -6 12
-18 8 -32 -4 -14 1 -32 12 -46 25 -33 29 -142 6 -177 -14 -21 -15 -30 -3 -64
7 -21 18 -43 26 -49 7 -6 13 -24 13 -40 0 -22 -5 -29 -19 -29 -10 0 -24 -7
-31 -15 -7 -8 -24 -15 -37 -15 -14 0 -38 -8 -54 -17 -24 -14 -33 -15 -49 -5
-27 16 -30 15 -30 -8 0 -11 -7 -20 -15 -20 -8 0 -26 -12 -40 -27 -21 -23 -25
-34 -20 -64 5 -31 3 -38 -20 -53 -51 -33 -54 -92 -8 -142 23 -25 25 -35 24
-110 -1 -84 10 -110 32 -81 7 9 21 17 31 19 16 2 20 -3 21 -27 3 -79 6 -101
15 -115 5 -8 11 -12 14 -9 3 2 10 55 17 117 7 62 15 112 19 112 15 0 31 -29
37 -67 8 -48 30 -83 53 -83 15 0 18 12 22 80 5 85 18 114 41 91 8 -8 12 -48
13 -119 1 -128 1 -132 14 -132 6 0 10 33 10 79 0 87 5 111 25 111 14 0 20 -27
31 -127 4 -40 11 -63 19 -63 9 0 14 36 17 133 7 169 18 197 54 141 14 -21 17
-47 15 -150 l-2 -124 55 0 56 0 0 115 c0 102 2 117 20 135 12 12 25 32 30 45
5 14 14 25 20 25 20 0 30 -51 30 -148 0 -53 3 -114 6 -135 l7 -37 52 0 52 0 6
128 c8 160 13 178 59 204 l37 21 33 -32 33 -32 -3 -145 -4 -144 95 0 c80 0 96
3 99 16 6 29 -7 262 -15 270 -4 4 -21 -5 -37 -21 -26 -25 -30 -26 -36 -11 -10
26 9 80 30 84 9 2 24 -5 31 -15 13 -17 14 -17 21 2 17 48 26 48 71 -1 l43 -48
0 -138 0 -138 95 0 95 0 0 116 0 116 -40 40 c-38 39 -45 63 -15 51 10 -3 15 2
15 16 0 14 9 25 26 31 38 15 40 14 76 -37 33 -48 33 -48 36 -190 l4 -143 85 0
86 0 -5 113 c-4 78 -10 122 -22 145 -27 52 -5 120 29 92 11 -9 16 -7 25 9 16
31 46 26 59 -10 6 -17 14 -102 17 -190 l7 -159 80 0 80 0 -5 144 c-5 152 0
181 33 171 15 -5 23 1 34 29 9 20 19 36 24 36 22 0 36 -37 36 -99 0 -36 2
-114 3 -173 l2 -108 90 0 90 0 0 106 c0 67 4 103 10 99 6 -3 10 -50 10 -106 0
-59 4 -99 10 -99 6 0 10 56 10 148 0 165 7 222 25 222 23 0 35 -60 35 -170 0
-150 8 -200 31 -200 17 0 19 9 19 109 0 63 4 112 10 116 18 11 30 -44 30 -136
l0 -89 60 0 60 0 0 175 c0 148 2 175 15 175 17 0 24 -22 34 -116 5 -49 10 -63
15 -49 4 11 11 27 14 35 4 8 8 -38 10 -103 l3 -117 64 0 65 0 0 153 c0 83 5
159 10 167 27 42 48 -60 49 -237 l1 -83 65 0 65 0 0 140 c0 118 3 142 15 147
9 3 19 2 23 -2 4 -3 9 -69 10 -146 l4 -139 124 0 c117 0 124 1 136 23 12 22
21 140 19 266 -1 55 3 69 23 90 13 15 26 39 30 54 6 24 1 34 -29 61 -25 24
-35 41 -35 63 0 62 -50 95 -187 123 -72 16 -87 35 -80 107 3 32 0 92 -5 134
-12 88 -2 243 17 262 24 25 47 79 41 101 -3 11 -22 32 -43 46 -20 14 -52 41
-70 60 -27 30 -31 40 -26 71 7 50 -6 69 -70 103 -34 19 -60 41 -69 60 -17 35
-63 200 -73 261 -10 60 -64 204 -96 258 -16 26 -29 49 -29 52 0 12 -69 104
-100 132 -36 34 -50 40 -50 23 0 -5 -4 -10 -10 -10 -5 0 -10 9 -10 20 0 11 -7
20 -15 20 -8 0 -15 4 -15 9 0 12 -47 61 -60 61 -5 0 -10 7 -10 15 0 17 -16 20
-25 6 -3 -6 0 -13 7 -18 13 -8 30 -32 48 -68 6 -11 19 -33 30 -50 32 -50 61
-118 56 -132 -9 -23 -36 -14 -47 15 -34 90 -103 207 -156 261 -29 30 -33 32
-33 13 0 -11 4 -24 10 -27 5 -3 21 -30 35 -58 14 -29 30 -59 34 -67 31 -57 41
-80 41 -97 0 -10 7 -27 15 -37 8 -11 15 -34 15 -52 0 -18 4 -35 9 -39 6 -3 12
-27 16 -53 3 -26 12 -77 20 -113 25 -110 19 -159 -20 -159 -8 0 -16 41 -21
102 -2 38 -8 76 -13 86 -17 34 -34 108 -37 165 -3 78 -34 115 -54 65 -9 -23
-9 -23 -9 -2 -1 12 -8 27 -16 34 -21 17 -19 30 6 30 12 0 19 5 17 12 -3 7 -13
13 -24 13 -14 0 -19 6 -17 27 1 19 -4 28 -19 31 -16 5 -19 11 -14 32 5 18 2
27 -9 31 -9 4 -28 27 -42 53 -15 25 -35 57 -45 70 -17 22 -18 23 -18 3z m413
-409 c6 -26 13 -56 48 -194 13 -51 6 -95 -11 -69 -6 8 -10 28 -10 44 0 15 -11
41 -24 57 -36 42 -50 215 -16 194 4 -2 10 -17 13 -32z m-1993 -238 c0 -8 -4
-15 -9 -15 -13 0 -22 16 -14 24 11 11 23 6 23 -9z m2068 -93 c3 -9 -2 -13 -14
-10 -9 1 -19 9 -22 16 -3 9 2 13 14 10 9 -1 19 -9 22 -16z m-40 -149 c2 -8 -6
-13 -22 -13 -17 0 -26 5 -26 16 0 19 41 16 48 -3z m22 -91 c0 -10 11 -29 24
-41 19 -18 22 -28 17 -49 -12 -45 -44 -40 -75 12 -30 52 -31 59 -10 80 21 21
44 20 44 -2z m193 -108 c-7 -19 -13 -18 -40 8 -14 13 -23 33 -23 51 l0 30 34
-38 c19 -20 32 -44 29 -51z m-383 -114 c0 -15 -7 -20 -27 -20 l-28 0 25 20
c31 24 30 24 30 0z m246 -117 c12 -28 12 -402 -1 -413 -11 -9 -49 9 -51 25 -1
6 -5 85 -9 176 -6 147 -5 167 9 172 9 4 16 18 16 32 0 29 24 34 36 8z m163
-194 c14 -93 5 -209 -16 -209 -12 0 -14 14 -12 68 1 37 -1 88 -6 115 -9 56 3
154 15 122 4 -11 13 -54 19 -96z m-39 -384 c11 -13 8 -15 -19 -15 -31 0 -42
14 -18 23 20 9 24 8 37 -8z"/>
<path d="M6575 2550 c-7 -12 12 -40 27 -40 13 0 6 43 -9 47 -6 2 -14 -1 -18
-7z"/>
<path d="M5774 2539 c-8 -14 11 -33 25 -25 11 7 4 36 -9 36 -5 0 -12 -5 -16
-11z"/>
<path d="M5996 2533 c-5 -5 2 -21 22 -51 7 -10 14 -11 36 -1 36 17 50 2 36
-35 -9 -23 -15 -27 -35 -22 -18 5 -25 2 -25 -8 0 -8 -16 -23 -35 -32 -34 -16
-45 -37 -25 -49 6 -3 17 1 26 9 8 9 23 16 33 16 10 0 28 14 41 30 19 25 30 30
58 28 31 -3 36 0 43 26 5 16 12 32 18 35 5 4 13 19 16 34 9 35 -7 35 -68 1
l-46 -25 -7 25 c-5 21 -11 25 -44 24 -22 0 -41 -3 -44 -5z"/>
<path d="M6940 2525 c-10 -12 -9 -16 5 -21 19 -8 40 9 31 25 -10 15 -21 14
-36 -4z"/>
<path d="M5708 2516 c-21 -16 -24 -76 -5 -95 10 -10 9 -14 -5 -22 -19 -11 -24
-44 -9 -54 5 -3 25 4 44 15 39 23 47 64 16 83 -23 15 -24 44 -2 69 15 17 15
18 -3 18 -10 0 -27 -7 -36 -14z"/>
<path d="M6483 2500 c-13 -5 -23 -16 -23 -23 0 -8 -8 -22 -19 -31 -22 -20 -27
-73 -5 -55 8 6 20 23 27 37 6 15 26 36 44 48 44 29 28 45 -24 24z"/>
<path d="M6225 2480 c-10 -16 4 -50 21 -50 11 0 14 8 12 27 -3 28 -22 41 -33
23z"/>
<path d="M7400 2483 c1 -18 18 -35 24 -24 4 6 4 16 1 21 -7 12 -25 13 -25 3z"/>
<path d="M5574 2466 c-3 -9 -12 -16 -20 -16 -8 0 -14 -7 -14 -15 0 -8 7 -15
16 -15 9 0 27 -11 40 -25 22 -24 22 -24 2 -31 -13 -4 -24 -1 -29 7 -7 11 -9
10 -9 -3 0 -10 4 -18 9 -18 5 0 12 -10 15 -22 5 -20 8 -21 16 -7 5 9 23 22 40
29 34 14 39 30 13 36 -10 3 -27 23 -37 45 -23 47 -34 56 -42 35z"/>
<path d="M5790 2465 c0 -16 16 -20 24 -6 3 5 -1 11 -9 15 -9 3 -15 0 -15 -9z"/>
<path d="M8210 2465 c0 -9 5 -15 11 -13 6 2 11 8 11 13 0 5 -5 11 -11 13 -6 2
-11 -4 -11 -13z"/>
<path d="M7085 2429 c-4 -6 -5 -13 -2 -16 7 -7 27 6 27 18 0 12 -17 12 -25 -2z"/>
<path d="M5874 2408 c-4 -12 -20 -35 -35 -51 -30 -30 -36 -51 -18 -63 12 -7
58 43 59 65 0 8 7 19 17 26 9 7 14 19 10 29 -9 23 -24 20 -33 -6z"/>
<path d="M6535 2382 c-6 -45 -4 -55 11 -67 22 -17 25 -17 43 -6 17 11 6 31
-17 31 -14 0 -15 2 -3 9 10 6 25 4 42 -5 34 -17 51 -18 67 -2 8 8 8 15 1 24
-9 11 -15 10 -34 -2 -22 -14 -25 -14 -37 5 -7 12 -18 21 -24 21 -6 0 -18 10
-26 22 -15 22 -16 21 -23 -30z"/>
<path d="M6710 2401 c0 -11 29 -35 35 -29 10 9 -7 38 -21 38 -8 0 -14 -4 -14
-9z"/>
<path d="M6135 2389 c-4 -6 -5 -13 -2 -16 7 -7 27 6 27 18 0 12 -17 12 -25 -2z"/>
<path d="M4951 2361 c-1 -27 2 -32 11 -23 8 8 8 17 0 34 -10 22 -11 21 -11
-11z"/>
<path d="M7880 2380 c0 -5 7 -10 15 -10 8 0 15 5 15 10 0 6 -7 10 -15 10 -8 0
-15 -4 -15 -10z"/>
<path d="M6325 2370 c3 -5 15 -10 26 -10 11 0 17 5 14 10 -3 6 -15 10 -26 10
-11 0 -17 -4 -14 -10z"/>
<path d="M7737 2354 c-11 -12 3 -24 29 -24 16 0 24 5 22 13 -5 13 -40 22 -51
11z"/>
<path d="M7280 2325 c0 -28 15 -34 24 -9 10 25 7 34 -9 34 -9 0 -15 -9 -15
-25z"/>
<path d="M7586 2334 c-20 -19 -20 -16 4 -44 11 -13 20 -29 20 -37 0 -18 7 -17
41 8 35 25 37 39 6 39 -31 0 -38 9 -26 31 8 16 6 19 -10 19 -11 0 -27 -7 -35
-16z"/>
<path d="M6280 2321 c0 -12 29 -23 41 -15 5 3 7 10 4 15 -8 12 -45 12 -45 0z"/>
<path d="M7937 2304 c-13 -14 -7 -21 18 -21 15 0 24 4 22 11 -4 13 -30 20 -40
10z"/>
<path d="M4980 2253 c0 -28 5 -55 10 -58 13 -8 13 75 0 95 -7 11 -10 0 -10
-37z"/>
<path d="M6349 2279 c-14 -26 -6 -34 20 -19 25 13 27 26 6 34 -9 3 -19 -3 -26
-15z"/>
<path d="M6400 2282 c0 -26 11 -34 27 -21 20 17 16 39 -7 39 -13 0 -20 -7 -20
-18z"/>
<path d="M4800 2224 c0 -26 3 -44 6 -41 10 10 12 77 2 83 -4 3 -8 -16 -8 -42z"/>
<path d="M6252 2258 c3 -7 13 -15 22 -16 12 -3 17 1 14 10 -3 7 -13 15 -22 16
-12 3 -17 -1 -14 -10z"/>
<path d="M6627 2263 c-11 -11 -8 -20 9 -27 17 -7 54 10 54 24 0 11 -53 14 -63
3z"/>
<path d="M4882 2238 c2 -13 8 -23 13 -23 6 0 11 10 13 23 2 15 -2 22 -13 22
-11 0 -15 -7 -13 -22z"/>
<path d="M5749 2251 c-1 -3 0 -21 1 -38 1 -24 -3 -33 -14 -33 -21 0 -21 -16 0
-24 34 -13 61 -6 72 19 9 19 8 27 -4 39 -8 8 -13 21 -12 28 2 7 -7 13 -19 14
-13 1 -23 -1 -24 -5z"/>
<path d="M5870 2231 c0 -10 -7 -36 -16 -56 -13 -31 -13 -39 -2 -46 32 -21 52
-3 23 21 -23 19 -18 30 13 30 16 0 32 -8 40 -20 18 -29 32 -24 32 11 0 22 5
32 20 36 22 6 27 22 8 27 -7 3 -37 7 -65 10 -47 4 -53 3 -53 -13z"/>
<path d="M5055 2231 c-3 -6 -1 -20 5 -31 15 -27 3 -43 -26 -36 l-24 6 4 -112
c3 -62 9 -140 13 -173 8 -59 9 -60 43 -65 46 -8 60 -2 60 24 0 12 5 27 12 34
9 9 7 16 -6 31 -11 12 -14 21 -7 26 18 11 12 37 -9 42 -16 4 -18 8 -9 19 8 10
7 32 -7 86 -10 40 -18 91 -19 112 0 38 -16 58 -30 37z m10 -244 c23 -14 28
-68 6 -75 -10 -3 -13 2 -9 23 4 21 1 29 -13 32 -11 3 -19 12 -19 19 0 17 9 17
35 1z"/>
<path d="M8170 2221 c0 -5 8 -11 17 -13 12 -2 17 -13 18 -33 0 -36 28 -46 45
-16 9 18 7 25 -14 46 -24 24 -66 34 -66 16z"/>
<path d="M7579 2204 c-9 -11 -22 -14 -46 -9 -19 3 -33 2 -33 -4 0 -5 -9 -13
-20 -16 -11 -4 -17 -11 -14 -17 4 -6 10 -6 17 1 6 6 28 11 49 11 27 0 40 -5
48 -21 15 -27 45 -20 46 11 2 28 -12 60 -25 60 -5 0 -14 -7 -22 -16z"/>
<path d="M5674 2194 c3 -9 6 -18 6 -20 0 -2 5 -4 10 -4 6 0 10 9 10 20 0 12
-7 20 -16 20 -11 0 -14 -5 -10 -16z"/>
<path d="M7845 2201 c-7 -12 12 -24 25 -16 11 7 4 25 -10 25 -5 0 -11 -4 -15
-9z"/>
<path d="M6105 2182 l-30 -17 28 -3 c33 -4 40 0 35 21 -3 13 -7 13 -33 -1z"/>
<path d="M7257 2183 c-10 -10 -8 -51 2 -58 13 -7 34 33 27 51 -6 15 -18 18
-29 7z"/>
<path d="M7670 2165 c0 -8 7 -15 15 -15 8 0 15 4 15 9 0 5 -7 11 -15 15 -9 3
-15 0 -15 -9z"/>
<path d="M4662 2148 c-18 -21 -20 -28 -11 -69 11 -51 39 -85 64 -76 11 5 15
23 15 76 0 59 -3 72 -19 81 -26 13 -24 14 -49 -12z"/>
<path d="M4853 2158 c-9 -12 -24 -118 -27 -190 -2 -44 19 -33 22 12 3 39 14
51 27 30 3 -5 17 -10 30 -10 32 0 39 38 20 102 -19 64 -48 87 -72 56z"/>
<path d="M4473 2153 c-9 -3 -13 -26 -13 -64 0 -54 2 -60 26 -71 22 -11 28 -10
40 7 16 22 18 88 4 116 -10 18 -31 23 -57 12z"/>
<path d="M4096 2125 c-9 -13 -19 -45 -22 -69 -6 -39 -4 -45 16 -56 31 -17 49
4 56 66 5 41 3 52 -14 67 -19 17 -20 17 -36 -8z"/>
<path d="M4276 2128 c-8 -30 -8 -92 0 -112 8 -20 38 -21 53 -2 7 9 11 38 9 73
-3 54 -5 58 -29 61 -20 2 -28 -2 -33 -20z"/>
<path d="M7355 2121 c-6 -11 9 -23 19 -14 9 9 7 23 -3 23 -6 0 -12 -4 -16 -9z"/>
<path d="M8210 2115 c0 -15 38 -40 47 -31 7 7 -26 46 -39 46 -4 0 -8 -7 -8
-15z"/>
<path d="M3921 2098 c-17 -48 -22 -99 -10 -114 16 -19 35 -18 44 4 12 31 23
105 18 119 -8 21 -43 15 -52 -9z"/>
<path d="M8102 2074 c-22 -25 -22 -28 -6 -45 23 -26 31 -24 31 9 0 15 3 35 7
45 12 25 -6 20 -32 -9z"/>
<path d="M3761 2046 c-20 -82 -11 -112 26 -88 7 5 16 36 19 70 6 58 5 62 -13
62 -16 0 -23 -10 -32 -44z"/>
<path d="M6110 2071 c-15 -30 -12 -33 15 -15 28 18 33 34 10 34 -8 0 -19 -9
-25 -19z"/>
<path d="M6585 2069 c-8 -24 10 -48 25 -33 10 10 2 54 -10 54 -5 0 -12 -9 -15
-21z"/>
<path d="M7942 2054 c1 -9 9 -19 16 -22 9 -3 13 2 10 14 -1 9 -9 19 -16 22 -9
3 -13 -2 -10 -14z"/>
<path d="M3636 2018 c-18 -50 -21 -84 -6 -93 13 -8 42 59 44 99 2 45 -19 41
-38 -6z"/>
<path d="M5767 2047 c-2 -7 -1 -30 3 -52 5 -29 9 -35 14 -23 5 10 15 15 24 12
15 -5 15 -4 0 6 -11 6 -18 23 -18 40 0 30 -14 41 -23 17z"/>
<path d="M6212 2038 c2 -15 11 -24 26 -26 25 -4 27 5 8 31 -19 24 -38 21 -34
-5z"/>
<path d="M7490 2036 c-5 -13 -17 -29 -26 -34 -15 -9 -16 -13 -5 -26 17 -21 30
-20 38 1 4 9 15 25 25 35 15 15 17 22 7 34 -17 20 -28 17 -39 -10z"/>
<path d="M7730 2037 c0 -12 -9 -28 -20 -35 -11 -7 -20 -17 -20 -22 0 -6 9 -10
20 -10 12 0 20 7 20 17 0 9 7 24 16 34 9 10 13 23 9 28 -11 19 -25 12 -25 -12z"/>
<path d="M6007 2029 c-10 -6 -22 -22 -27 -35 -5 -13 -16 -24 -25 -24 -19 0
-20 -34 0 -50 17 -14 35 -5 35 18 0 10 14 28 30 42 47 39 36 78 -13 49z"/>
<path d="M7037 2034 c-8 -8 1 -24 14 -24 5 0 9 7 9 15 0 15 -12 20 -23 9z"/>
<path d="M3524 2008 c3 -13 6 -38 6 -55 0 -48 17 -40 22 10 6 51 1 67 -19 67
-11 0 -14 -6 -9 -22z"/>
<path d="M4910 1956 c0 -22 17 -28 24 -10 9 22 8 24 -9 24 -8 0 -15 -6 -15
-14z"/>
<path d="M6145 1959 c-4 -6 0 -18 9 -27 15 -15 16 -15 16 5 0 25 -15 38 -25
22z"/>
<path d="M7044 1959 c-3 -6 -1 -16 5 -22 8 -8 11 -5 11 11 0 24 -5 28 -16 11z"/>
<path d="M4707 1936 c-6 -15 1 -26 15 -26 11 0 10 27 -1 34 -5 3 -11 0 -14 -8z"/>
<path d="M6350 1920 c0 -5 16 -10 35 -10 19 0 35 5 35 10 0 6 -16 10 -35 10
-19 0 -35 -4 -35 -10z"/>
<path d="M3336 1905 c4 -8 10 -15 15 -15 5 0 9 7 9 15 0 8 -7 15 -15 15 -9 0
-12 -6 -9 -15z"/>
<path d="M4912 1908 c-7 -7 -12 -18 -12 -25 0 -18 29 -16 37 3 8 21 -10 37
-25 22z"/>
<path d="M4640 1885 c0 -9 5 -15 11 -13 6 2 11 8 11 13 0 5 -5 11 -11 13 -6 2
-11 -4 -11 -13z"/>
<path d="M4834 1875 c-4 -14 -4 -29 0 -32 8 -8 96 -17 96 -10 0 13 -60 67 -74
67 -9 0 -18 -11 -22 -25z"/>
<path d="M6057 1873 c-17 -5 -53 -61 -44 -70 3 -2 19 2 35 11 27 14 42 34 42
57 0 9 -4 10 -33 2z"/>
<path d="M5845 1850 c-8 -13 4 -32 16 -25 12 8 12 35 0 35 -6 0 -13 -4 -16
-10z"/>
<path d="M6137 1854 c-14 -15 -6 -34 14 -34 14 0 19 5 17 17 -3 18 -20 27 -31
17z"/>
<path d="M6285 1841 c-6 -11 9 -23 19 -14 9 9 7 23 -3 23 -6 0 -12 -4 -16 -9z"/>
<path d="M7316 1814 c5 -19 0 -32 -17 -51 l-24 -25 25 4 c15 2 25 10 25 20 0
9 4 20 8 24 13 14 8 54 -8 54 -11 0 -14 -7 -9 -26z"/>
<path d="M6571 1816 c-17 -21 4 -30 23 -10 9 8 16 17 16 20 0 10 -29 3 -39
-10z"/>
<path d="M6070 1780 c0 -5 11 -10 25 -10 14 0 25 5 25 10 0 6 -11 10 -25 10
-14 0 -25 -4 -25 -10z"/>
<path d="M7461 1757 c-9 -11 -8 -17 4 -27 12 -10 16 -9 21 5 9 23 -10 40 -25
22z"/>
<path d="M3223 1696 c-34 -29 -77 -29 -66 0 4 10 0 12 -11 8 -8 -3 -18 -14
-21 -24 -3 -10 -13 -21 -21 -24 -10 -4 -13 -14 -10 -28 3 -13 3 -17 0 -10 -8
16 -34 16 -34 -1 0 -45 67 -49 121 -6 21 16 44 29 51 28 33 -4 58 2 58 15 0 8
-6 16 -14 19 -8 3 -16 16 -18 28 -3 22 -3 22 -35 -5z"/>
<path d="M4910 1662 c0 -10 -7 -28 -17 -41 -13 -19 -14 -28 -5 -42 7 -10 12
-24 12 -31 1 -16 45 -68 58 -68 5 0 15 6 21 14 10 11 9 21 -3 45 -25 47 -21
71 12 71 35 0 72 10 72 20 0 4 -17 10 -39 14 -21 3 -51 13 -67 21 -37 19 -44
19 -44 -3z"/>
<path d="M4660 1628 c-12 -26 -16 -44 -10 -46 5 -2 10 -12 10 -22 0 -33 22
-70 42 -70 24 0 34 27 20 51 -7 10 -12 36 -12 58 0 42 10 51 62 51 47 0 30 6
-34 14 l-57 6 -21 -42z"/>
<path d="M6137 1663 c-9 -9 36 -49 63 -56 20 -5 18 -1 -11 28 -36 36 -42 39
-52 28z"/>
<path d="M4420 1628 c-24 -40 -24 -41 -3 -96 19 -49 48 -56 47 -9 -2 107 -5
137 -14 137 -6 0 -19 -15 -30 -32z"/>
<path d="M4197 1643 c-11 -17 -37 -98 -37 -115 0 -23 27 -48 46 -41 10 4 14
20 14 57 0 28 1 62 2 75 3 24 -15 40 -25 24z"/>
<path d="M6497 1633 c-13 -12 -7 -23 13 -23 11 0 20 7 20 15 0 15 -21 21 -33
8z"/>
<path d="M3961 1606 c-6 -7 -14 -41 -17 -75 -6 -52 -4 -61 9 -61 24 0 31 19
32 87 0 64 -4 73 -24 49z"/>
<path d="M3788 1603 c-33 -4 -36 -7 -41 -41 -3 -20 -9 -52 -13 -69 -5 -29 -4
-33 15 -33 26 0 35 18 23 51 -11 29 4 68 27 70 9 1 23 3 31 4 8 1 21 3 28 4 7
0 10 6 7 11 -3 6 -14 9 -23 8 -9 -1 -33 -3 -54 -5z"/>
<path d="M6044 1584 c3 -9 6 -18 6 -20 0 -2 9 -4 20 -4 18 0 19 3 10 20 -13
24 -45 28 -36 4z"/>
<path d="M6110 1590 c0 -5 7 -10 15 -10 8 0 15 5 15 10 0 6 -7 10 -15 10 -8 0
-15 -4 -15 -10z"/>
<path d="M3574 1569 c-13 -22 13 -33 46 -19 23 9 28 15 18 21 -19 12 -56 11
-64 -2z"/>
<path d="M3434 1539 c-3 -6 -1 -15 6 -19 15 -10 62 9 54 21 -8 13 -52 11 -60
-2z"/>
<path d="M6687 1513 c-12 -12 -7 -31 10 -37 21 -8 35 6 27 27 -6 17 -25 22
-37 10z"/>
<path d="M6545 1500 c-8 -13 13 -40 31 -40 19 0 18 36 -2 44 -21 8 -22 8 -29
-4z"/>
<path d="M6995 1485 c17 -13 38 -24 47 -25 24 0 33 19 11 26 -10 3 -26 10 -35
15 -10 5 -26 9 -35 9 -14 0 -11 -6 12 -25z"/>
<path d="M3567 1484 c-4 -4 -7 -18 -7 -31 0 -28 23 -27 28 1 4 20 -11 40 -21
30z"/>
<path d="M6012 1468 c2 -15 11 -24 26 -26 25 -4 27 1 12 29 -15 27 -42 25 -38
-3z"/>
<path d="M6620 1457 c0 -46 67 -74 109 -48 12 8 10 12 -12 22 -15 7 -27 18
-27 24 0 12 -30 25 -57 25 -7 0 -13 -11 -13 -23z"/>
<path d="M2922 1447 c-61 -23 -68 -71 -13 -79 38 -6 48 0 53 32 2 19 8 24 26
22 18 -1 23 2 20 15 -4 22 -41 26 -86 10z"/>
<path d="M3120 1445 c0 -8 5 -15 10 -15 6 0 10 7 10 15 0 8 -4 15 -10 15 -5 0
-10 -7 -10 -15z"/>
<path d="M4265 1420 c-37 -4 -51 -9 -53 -22 -2 -10 2 -18 9 -18 6 0 18 8 25
18 11 14 16 15 31 4 33 -23 42 -24 58 -8 20 20 34 20 41 1 8 -21 28 -19 49 5
10 11 16 20 14 21 -15 4 -133 3 -174 -1z"/>
<path d="M6976 1421 c-7 -11 22 -23 35 -15 5 3 7 10 4 15 -8 12 -32 12 -39 0z"/>
<path d="M4134 1395 c-7 -17 4 -37 17 -30 12 8 12 45 -1 45 -6 0 -13 -7 -16
-15z"/>
<path d="M3823 1392 c-13 -2 -23 -10 -23 -17 0 -18 23 -32 28 -17 2 7 10 12
17 12 19 0 28 17 12 22 -6 2 -22 2 -34 0z"/>
<path d="M3887 1388 c-9 -5 -9 -10 0 -19 7 -7 17 -8 25 -3 7 5 31 9 52 9 22 0
41 5 43 12 3 10 -11 12 -52 10 -31 -1 -62 -5 -68 -9z"/>
<path d="M4036 1391 c-7 -11 18 -33 27 -24 4 3 7 12 7 20 0 15 -26 18 -34 4z"/>
<path d="M3740 1370 c-13 -8 -13 -11 2 -26 16 -17 18 -17 24 0 9 23 -7 38 -26
26z"/>
<path d="M6626 1368 c-18 -10 -18 -11 5 -29 l24 -19 -22 -6 c-31 -8 -29 -24 2
-24 14 0 25 5 25 10 0 6 6 10 13 9 41 -5 49 16 20 51 -19 22 -39 25 -67 8z"/>
<path d="M6758 1363 c-22 -6 -23 -19 -2 -27 23 -9 47 -7 64 4 13 9 13 11 0 20
-16 10 -33 11 -62 3z"/>
<path d="M2931 1340 c-16 -9 -6 -30 15 -30 15 0 20 25 6 34 -4 2 -14 1 -21 -4z"/>
<path d="M2820 1324 c0 -5 19 -45 25 -52 2 -2 13 1 24 8 27 14 28 40 2 33 -10
-3 -22 0 -25 6 -7 11 -26 15 -26 5z"/>
<path d="M4695 1317 c-19 -9 -20 -18 -19 -161 2 -202 9 -252 37 -260 36 -10
82 -7 95 6 18 18 16 259 -2 302 -19 46 -33 52 -67 27 -15 -11 -31 -21 -34 -21
-12 0 -4 59 10 70 16 13 20 36 8 43 -5 2 -17 -1 -28 -6z"/>
<path d="M6350 1309 c-11 -19 -10 -20 9 -9 12 6 21 15 21 20 0 18 -19 11 -30
-11z"/>
<path d="M6547 1312 c-10 -10 -14 -22 -10 -25 10 -11 23 -8 23 4 0 7 8 18 18
25 15 12 15 13 1 14 -9 0 -23 -8 -32 -18z"/>
<path d="M2725 1300 c-20 -22 -15 -36 10 -27 8 4 15 16 15 27 0 25 -2 25 -25
0z"/>
<path d="M4931 1306 c-8 -10 -8 -21 -1 -40 13 -34 13 -156 1 -189 -6 -16 -5
-54 3 -108 l12 -84 44 3 c76 4 73 -4 66 150 -9 186 -11 192 -47 192 -39 0 -50
27 -20 51 12 10 20 23 16 29 -9 15 -61 12 -74 -4z"/>
<path d="M4426 1302 c-8 -13 11 -35 23 -28 16 10 14 36 -3 36 -8 0 -17 -4 -20
-8z"/>
<path d="M4161 1293 c0 -5 3 -15 7 -25 6 -14 9 -13 25 8 18 24 18 24 -8 24
-14 0 -25 -3 -24 -7z"/>
<path d="M3925 1270 c-8 -13 4 -32 16 -25 12 8 12 35 0 35 -6 0 -13 -4 -16
-10z"/>
<path d="M6445 1269 c-10 -15 3 -25 16 -12 7 7 7 13 1 17 -6 3 -14 1 -17 -5z"/>
<path d="M3710 1236 c0 -41 15 -56 24 -23 10 37 7 57 -9 57 -10 0 -15 -10 -15
-34z"/>
<path d="M6705 1259 c-16 -4 -42 -11 -57 -14 -43 -8 -33 -22 20 -29 80 -9 122
-18 128 -27 3 -5 -4 -21 -15 -35 -14 -17 -19 -34 -15 -49 4 -17 0 -26 -16 -35
-21 -11 -21 -12 -3 -32 17 -19 17 -20 0 -33 -15 -11 -15 -14 -3 -24 8 -7 12
-19 9 -27 -3 -8 1 -14 10 -14 24 0 31 19 13 39 -9 10 -16 21 -16 24 0 12 35 8
48 -5 6 -6 15 -8 19 -4 5 4 -4 18 -18 30 -21 18 -26 30 -24 60 1 21 10 45 18
53 14 15 16 14 22 -10 4 -14 14 -28 22 -31 10 -4 13 -14 9 -31 -5 -21 -2 -25
21 -31 72 -15 96 -47 43 -57 -22 -5 -30 -12 -30 -27 0 -13 4 -19 11 -14 24 14
87 25 143 24 55 -1 58 0 53 19 -4 16 1 23 19 27 13 3 24 12 24 20 0 19 -40 18
-55 -2 -9 -13 -20 -15 -56 -9 l-44 8 30 13 c17 7 51 18 78 26 67 18 63 26 -19
43 -26 5 -32 3 -37 -14 -3 -15 -13 -21 -31 -21 -14 0 -26 5 -26 11 0 7 -14 8
-40 4 -36 -6 -40 -5 -40 14 0 11 -9 25 -20 31 -33 18 -23 30 25 30 25 0 45 4
45 8 0 18 -40 44 -60 39 -15 -4 -20 0 -20 13 0 26 -40 53 -57 39 -12 -11 -23
-10 -63 4 -8 3 -28 1 -45 -4z m275 -214 c0 -14 -4 -25 -9 -25 -10 0 -21 36
-13 44 12 13 22 5 22 -19z"/>
<path d="M3531 1236 c-13 -15 -7 -36 9 -36 12 0 22 32 12 42 -5 5 -14 2 -21
-6z"/>
<path d="M6512 1241 c-11 -7 -10 -10 3 -15 28 -10 45 -7 45 9 0 16 -27 20 -48
6z"/>
<path d="M4478 1219 l-28 -21 0 -143 c0 -132 2 -145 19 -155 29 -15 67 -12 82
6 18 22 19 280 1 312 -16 27 -39 28 -74 1z"/>
<path d="M6350 1230 c19 -13 30 -13 30 0 0 6 -10 10 -22 10 -19 0 -20 -2 -8
-10z"/>
<path d="M7280 1230 c0 -5 7 -10 15 -10 8 0 15 5 15 10 0 6 -7 10 -15 10 -8 0
-15 -4 -15 -10z"/>
<path d="M3996 1197 c-15 -11 -16 -28 -12 -157 3 -80 5 -149 5 -153 1 -15 54
-3 64 15 8 12 6 26 -8 52 -18 34 -18 37 -3 64 18 29 28 158 15 180 -10 16 -38
15 -61 -1z"/>
<path d="M3780 1171 c-12 -23 -13 -280 -1 -299 5 -8 21 -12 37 -10 l29 3 3
143 c1 87 -2 150 -8 162 -14 25 -46 26 -60 1z"/>
<path d="M7020 1180 c0 -6 -12 -15 -26 -21 -31 -11 -28 -16 15 -29 24 -7 33
-6 37 5 3 7 14 15 25 18 10 3 19 12 19 21 0 12 -10 16 -35 16 -19 0 -35 -5
-35 -10z"/>
<path d="M6263 1154 c-8 -23 12 -38 41 -30 29 7 35 31 10 40 -26 10 -44 7 -51
-10z"/>
<path d="M3588 1132 c-2 -15 -2 -87 0 -160 4 -131 5 -132 28 -132 13 0 24 6
25 13 5 71 7 276 3 290 -3 10 -15 17 -29 17 -17 0 -24 -7 -27 -28z"/>
<path d="M6388 1137 c-18 -15 -26 -32 -26 -55 -1 -30 2 -33 21 -27 39 11 106
18 123 11 12 -5 14 -9 5 -20 -9 -11 -8 -15 6 -20 22 -9 65 39 61 69 -1 11 1
26 6 33 5 8 4 18 -2 24 -18 18 -62 -18 -62 -50 -1 -23 -2 -24 -11 -9 -5 9 -21
17 -35 17 -14 0 -24 5 -23 13 5 43 -21 50 -63 14z"/>
<path d="M3440 1130 c-12 -7 -14 -37 -12 -157 3 -144 9 -172 31 -159 13 8 16
312 3 320 -4 2 -14 1 -22 -4z"/>
<path d="M6124 1106 c-35 -19 -54 -38 -54 -52 0 -19 24 -18 40 1 18 22 30 18
30 -10 0 -16 6 -25 16 -25 24 0 54 19 54 35 0 15 -5 17 -44 19 -20 1 -36 26
-17 26 6 0 11 5 11 10 0 12 -9 11 -36 -4z"/>
<path d="M6616 1105 c-3 -8 4 -23 14 -33 20 -18 20 -19 -6 -43 -14 -13 -30
-34 -35 -46 -6 -16 -14 -21 -26 -17 -16 5 -16 4 1 -10 25 -20 36 -20 36 -2 0
8 10 18 23 22 12 4 25 12 29 18 5 8 12 8 25 0 32 -19 45 -5 23 23 -21 28 -26
53 -10 53 6 0 10 7 10 15 0 8 -9 15 -19 15 -11 0 -23 5 -26 10 -9 15 -32 12
-39 -5z"/>
<path d="M7475 1051 c-2 -4 -2 -16 0 -27 2 -10 4 -22 4 -26 1 -5 10 -8 20 -8
21 0 61 -44 61 -66 0 -20 36 -36 72 -32 47 5 46 25 -1 33 -36 6 -39 8 -26 22
17 16 12 33 -10 33 -20 0 -95 40 -95 51 0 4 7 12 17 17 13 8 11 10 -11 10 -14
0 -28 -4 -31 -7z"/>
<path d="M6430 1031 c0 -12 29 -23 41 -15 5 3 7 10 4 15 -8 12 -45 12 -45 0z"/>
<path d="M6338 1013 c-10 -2 -18 -9 -18 -15 0 -5 -12 -7 -29 -3 -19 4 -41 0
-60 -10 -30 -15 -35 -26 -31 -72 1 -18 -4 -23 -22 -23 -13 0 -30 -5 -38 -10
-13 -9 -13 -11 0 -20 17 -11 63 -4 68 11 5 12 23 11 55 -3 33 -16 34 -30 2
-45 -20 -9 -27 -8 -33 3 -5 9 -15 12 -26 8 -15 -6 -17 -14 -12 -47 4 -23 12
-47 18 -54 8 -10 6 -13 -10 -13 -29 0 -37 -17 -12 -25 22 -7 80 14 80 29 0 4
-7 6 -15 3 -19 -8 -28 8 -21 36 3 15 24 31 63 48 58 27 58 27 60 72 1 29 -4
50 -13 58 -18 15 -18 39 0 39 8 0 21 -7 30 -15 8 -8 19 -15 25 -15 22 0 21 21
-3 45 -26 25 -28 26 -58 18z"/>
<path d="M6115 1001 c-7 -12 21 -51 37 -51 13 0 9 13 -11 39 -13 17 -20 20
-26 12z"/>
<path d="M2979 974 c-11 -13 -10 -17 4 -26 13 -7 15 -13 7 -29 -11 -20 -6 -39
11 -39 5 0 9 6 9 14 0 8 9 21 21 29 l20 15 -24 26 c-29 31 -30 31 -48 10z"/>
<path d="M7458 945 c2 -14 11 -25 18 -25 17 0 18 22 2 38 -19 19 -26 14 -20
-13z"/>
<path d="M6080 936 c0 -8 5 -18 10 -21 6 -3 10 -25 11 -48 0 -34 2 -38 9 -21
12 30 1 104 -16 104 -8 0 -14 -6 -14 -14z"/>
<path d="M6670 915 c-11 -30 -4 -52 20 -65 13 -7 20 -6 24 5 7 19 -3 45 -17
45 -7 0 -7 4 1 12 16 16 15 28 -3 28 -9 0 -20 -11 -25 -25z"/>
<path d="M6800 930 c0 -5 7 -10 15 -10 8 0 15 5 15 10 0 6 -7 10 -15 10 -8 0
-15 -4 -15 -10z"/>
<path d="M6600 910 c0 -19 3 -21 12 -12 9 9 9 15 0 24 -9 9 -12 7 -12 -12z"/>
<path d="M6442 909 c2 -6 8 -10 13 -10 5 0 11 4 13 10 2 6 -4 11 -13 11 -9 0
-15 -5 -13 -11z"/>
<path d="M6867 914 c-8 -8 1 -24 14 -24 5 0 9 7 9 15 0 15 -12 20 -23 9z"/>
<path d="M6477 854 c-4 -4 -7 -25 -7 -46 0 -32 3 -38 20 -38 27 0 36 26 18 48
-9 9 -17 23 -19 30 -3 7 -8 10 -12 6z"/>
<path d="M6417 833 c-12 -11 -8 -23 8 -23 8 0 15 7 15 15 0 16 -12 20 -23 8z"/>
<path d="M6099 795 c-4 -67 -4 -70 24 -73 27 -3 37 11 17 23 -6 4 -8 15 -5 25
4 13 -1 22 -15 30 -16 9 -20 8 -21 -5z"/>
<path d="M6597 794 c-8 -8 1 -24 14 -24 5 0 9 7 9 15 0 15 -12 20 -23 9z"/>
<path d="M6690 780 c-8 -5 -25 -10 -37 -10 -13 0 -23 -4 -23 -9 0 -14 32 -23
44 -11 5 5 21 10 34 10 14 0 22 5 20 12 -6 16 -20 19 -38 8z"/>
<path d="M5015 769 c-4 -6 -4 -13 -1 -16 8 -8 36 5 36 17 0 13 -27 13 -35 -1z"/>
<path d="M6345 760 c-3 -5 3 -10 14 -10 12 0 21 5 21 10 0 6 -6 10 -14 10 -8
0 -18 -4 -21 -10z"/>
<path d="M6552 748 c-18 -18 -14 -57 9 -89 16 -22 18 -33 10 -43 -8 -10 -7
-17 5 -26 9 -8 13 -22 10 -33 -3 -14 -2 -17 6 -9 6 6 11 22 11 36 0 15 4 29 9
32 5 3 2 16 -7 30 -12 18 -13 29 -5 43 14 28 12 51 -4 51 -8 0 -16 -3 -19 -7
-2 -5 -2 -3 -1 4 4 18 -11 24 -24 11z"/>
<path d="M6390 720 c-8 -5 -23 -11 -33 -14 -13 -4 -16 -12 -12 -25 8 -27 -12
-36 -25 -11 -6 12 -21 20 -35 20 -31 0 -33 -16 -2 -26 12 -3 31 -16 42 -28
l20 -21 3 23 c2 13 10 22 20 22 26 0 38 12 46 43 7 28 1 32 -24 17z"/>
<path d="M6440 670 c0 -12 35 -31 43 -24 3 3 3 12 0 20 -6 16 -43 19 -43 4z"/>
<path d="M2352 658 c-14 -14 -16 -28 -3 -28 9 0 24 30 18 36 -2 2 -9 -2 -15
-8z"/>
<path d="M2608 593 c-14 -15 -15 -22 -5 -32 6 -6 12 -19 12 -29 0 -9 11 -22
25 -29 21 -11 27 -10 38 4 19 27 14 44 -18 56 -16 6 -30 20 -32 30 -3 19 -3
19 -20 0z"/>
<path d="M4250 590 c-22 -13 2 -35 25 -23 13 8 14 11 3 21 -9 7 -19 7 -28 2z"/>
<path d="M4305 590 c-4 -7 -3 -16 3 -22 14 -14 45 -2 40 15 -6 16 -34 21 -43
7z"/>
<path d="M6366 592 c-9 -15 10 -33 28 -26 13 5 14 9 5 20 -13 16 -25 18 -33 6z"/>
<path d="M3871 578 c-78 -6 -114 -19 -98 -34 3 -4 14 -3 24 1 18 7 78 11 268
19 117 5 108 4 100 15 -6 11 -165 10 -294 -1z"/>
<path d="M4186 581 c-3 -5 0 -11 7 -13 17 -7 38 2 31 13 -7 12 -31 12 -38 0z"/>
<path d="M6457 568 c-23 -12 -22 -48 1 -48 21 0 42 18 42 36 0 17 -23 24 -43
12z"/>
<path d="M2510 544 c0 -17 22 -14 28 4 2 7 -3 12 -12 12 -9 0 -16 -7 -16 -16z"/>
<path d="M3705 550 c-8 -12 20 -24 35 -15 6 3 8 11 5 16 -8 12 -32 12 -40 -1z"/>
<path d="M2463 538 c-22 -27 -45 -87 -38 -99 5 -7 13 0 21 20 12 29 15 30 39
19 14 -6 25 -15 25 -20 0 -5 5 -6 10 -3 15 10 12 45 -5 45 -8 0 -20 12 -28 26
-11 20 -16 23 -24 12z"/>
<path d="M2335 530 c-4 -6 -3 -16 3 -22 6 -6 12 -6 17 2 4 6 3 16 -3 22 -6 6
-12 6 -17 -2z"/>
<path d="M6765 519 c-4 -6 -5 -13 -2 -16 7 -7 27 6 27 18 0 12 -17 12 -25 -2z"/>
<path d="M2232 485 c-7 -14 -12 -32 -12 -39 0 -8 -9 -16 -21 -19 -12 -3 -18
-10 -14 -17 5 -8 12 -7 24 4 26 23 48 19 55 -9 9 -36 36 -32 36 5 0 20 -5 30
-15 30 -8 0 -15 9 -15 19 0 25 -10 51 -19 51 -4 0 -13 -11 -19 -25z"/>
<path d="M6510 487 c-35 -18 -35 -39 1 -59 55 -32 78 -16 56 41 -13 34 -20 37
-57 18z"/>
<path d="M6426 394 c-16 -24 -16 -26 6 -49 13 -14 26 -25 29 -25 13 0 18 84 6
92 -19 12 -24 10 -41 -18z"/>
<path d="M6762 400 c-7 -11 -23 -20 -37 -20 -14 0 -25 -4 -25 -10 0 -5 7 -10
15 -10 8 0 20 -9 27 -20 20 -31 41 -26 33 9 -5 24 -2 29 16 34 19 5 20 8 9 21
-16 21 -23 20 -38 -4z"/>
<path d="M2016 374 c-4 -10 2 -14 18 -14 21 0 25 -6 28 -42 3 -24 2 -47 -2
-51 -13 -15 -61 5 -70 29 -11 27 -19 29 -45 11 -17 -13 -16 -14 14 -20 29 -6
31 -9 21 -28 -9 -16 -19 -20 -46 -17 -35 4 -44 -5 -44 -46 0 -12 -5 -27 -12
-34 -9 -9 -7 -16 9 -32 12 -10 24 -28 28 -40 5 -15 16 -20 48 -22 74 -3 110 3
124 20 12 16 14 16 27 -1 20 -26 51 -18 51 13 0 14 5 28 10 32 7 5 6 14 -2 25
-34 51 -55 105 -49 129 7 25 8 26 26 9 14 -12 17 -22 11 -34 -7 -12 -1 -21 25
-39 39 -26 60 -22 41 9 -18 30 24 63 70 54 38 -7 43 6 17 43 -21 30 -58 29
-72 -3 -7 -15 -20 -25 -33 -25 -18 0 -19 3 -9 15 15 18 5 35 -21 35 -11 0 -22
7 -25 15 -8 19 -24 20 -24 1 0 -30 -25 -36 -51 -13 -33 31 -56 39 -63 21z m50
-155 c16 -26 -47 -109 -83 -109 -36 0 -41 26 -14 70 5 8 12 23 15 33 6 19 70
25 82 6z m68 -99 c-10 -4 -23 -5 -28 -2 -5 3 -1 9 10 12 10 4 23 5 28 2 5 -3
1 -9 -10 -12z"/>
<path d="M2336 383 c-15 -15 -4 -33 19 -33 14 0 25 4 25 10 0 12 -35 31 -44
23z"/>
<path d="M6620 345 c0 -10 7 -15 18 -13 21 4 19 22 -2 26 -10 2 -16 -3 -16
-13z"/>
<path d="M6365 330 c-8 -13 4 -32 16 -25 12 8 12 35 0 35 -6 0 -13 -4 -16 -10z"/>
<path d="M2760 285 c0 -8 5 -15 10 -15 6 0 10 7 10 15 0 8 -4 15 -10 15 -5 0
-10 -7 -10 -15z"/>
<path d="M6790 269 c0 -6 -7 -9 -15 -5 -9 3 -19 -3 -26 -17 -7 -12 -19 -27
-27 -33 -16 -12 -13 -45 5 -51 6 -2 13 6 15 19 2 17 10 23 28 23 17 0 26 6 28
20 3 11 10 24 18 28 20 12 17 27 -6 27 -11 0 -20 -5 -20 -11z"/>
<path d="M6560 255 c-7 -9 -30 -14 -58 -15 -113 -1 -126 -3 -136 -31 -5 -15
-6 -34 -2 -44 5 -14 9 -15 22 -4 21 17 37 -7 22 -34 -14 -27 3 -41 40 -33 24
6 28 11 24 32 -4 20 1 26 27 35 17 6 31 17 31 25 0 18 9 18 29 0 25 -23 38 -6
33 42 -4 45 -12 51 -32 27z"/>
<path d="M8873 248 c-47 -73 -48 -79 -24 -100 30 -23 47 -23 54 2 5 21 51 29
62 10 3 -5 13 -10 21 -10 10 0 14 13 14 49 l0 48 -46 7 c-64 8 -72 8 -81 -6z"/>
<path d="M6872 233 c4 -21 33 -25 33 -3 0 8 -8 16 -18 18 -14 3 -18 -1 -15
-15z"/>
<path d="M3747 233 c-4 -3 -7 -57 -7 -120 0 -94 3 -113 15 -113 12 0 15 19 15
108 0 101 -8 141 -23 125z"/>
<path d="M6830 185 c-7 -8 -17 -15 -22 -15 -5 0 -16 -7 -24 -15 -17 -16 -13
-19 36 -28 14 -2 33 -8 42 -12 24 -10 37 24 15 37 -10 5 -17 15 -17 23 0 21
-16 27 -30 10z"/>
</g>
</svg>
